<?xml version="1.0" encoding="utf-8"?>
<!-- Bee Character 1 -->
<svg version="1.1" xmlns="http://www.w3.org/2000/svg" xmlns:xlink="http://www.w3.org/1999/xlink" 
     viewBox="320 480 1800 1400" xml:space="preserve">
<g transform="translate(2440, 0) scale(-1, 1)">
	<path style="fill-rule:evenodd;clip-rule:evenodd;fill:#CAE8EB;" d="M1406.191,948.861
		c-32.89-86.303-12.367-244.438,38.678-328.635c38.942-63.938,111.562-92.354,141.558-34.205
		c49.993,97.354-73.147,309.953-138.664,378.891C1434.871,966.227,1420.926,961.491,1406.191,948.861L1406.191,948.861z"/>
	<path style="fill-rule:evenodd;clip-rule:evenodd;fill:#BFDDE0;" d="M1377.248,967.016
		c-63.412-79.988-94.723-253.383-68.937-358.893c19.734-80.251,87.092-134.717,137.874-83.409
		c85.25,85.776,26.312,351-19.734,445.196C1413.295,975.699,1396.982,975.436,1377.248,967.016L1377.248,967.016z"/>
	<path style="fill-rule:evenodd;clip-rule:evenodd;fill:#BFDDE0;" d="M1543.276,1007.273
		c35.784-85.25,159.976-185.499,254.699-210.758c72.358-19.471,144.715,10.262,126.297,72.884
		c-31.048,104.984-267.065,173.658-361.788,178.131C1551.959,1039.637,1545.381,1026.744,1543.276,1007.273L1543.276,1007.273z"/>
	<path style="fill-rule:evenodd;clip-rule:evenodd;fill:#ACCCCF;" d="M1480.127,978.067
		c-6.315-101.827,67.095-262.066,148.662-333.898c61.833-54.729,148.136-61.043,160.502,9.999
		c21.05,119.193-178.657,303.375-270.486,354.42C1504.86,1005.958,1491.704,996.485,1480.127,978.067L1480.127,978.067z"/>
	<path style="fill-rule:evenodd;clip-rule:evenodd;fill:#FBBD6A;" d="M779.969,1358.01c0,300.745,189.708,420.2,473.613,460.457
		c812.51,114.983,842.243-756.729,168.396-902.496C1098.079,845.982,779.969,930.443,779.969,1358.01L779.969,1358.01z"/>
	<path style="fill-rule:evenodd;clip-rule:evenodd;fill:#654337;" d="M974.15,1194.087c11.84-16.313,27.628,20.523,47.888,20.523
		c22.628,0,39.205-34.732,47.361-23.155c8.946,12.63-12.63,40.257-43.678,43.151C990.201,1237.765,965.73,1205.138,974.15,1194.087
		L974.15,1194.087z"/>
	<path style="fill-rule:evenodd;clip-rule:evenodd;fill:#FCF0E0;" d="M868.903,1091.734
		c93.933,17.629,85.777,127.875,15.261,157.608c-48.94,20.523-108.668-1.052-112.352-62.096
		C768.128,1124.361,801.018,1078.578,868.903,1091.734L868.903,1091.734z"/>
	<path style="fill-rule:evenodd;clip-rule:evenodd;fill:#654337;" d="M870.482,1092.787c78.672,18.681,73.41,125.508,10.788,154.977
		c-18.155,8.683-32.89,7.367-48.151-2.894c-15.524-10.262-30.785-28.153-31.837-57.886
		C798.913,1131.728,833.119,1084.104,870.482,1092.787L870.482,1092.787z"/>
	<path style="fill-rule:evenodd;clip-rule:evenodd;fill:#FEFEFE;" d="M872.587,1117.257c12.63-10.788,32.1,14.208,27.891,27.627
		c-1.316,4.736-4.473,6.578-8.946,7.104c-4.473,0.526-9.735-1.053-15.524-5.789C865.482,1137.517,866.798,1122.256,872.587,1117.257
		L872.587,1117.257z"/>
	<path style="fill-rule:evenodd;clip-rule:evenodd;fill:#FCF0E0;" d="M1287.261,1160.671
		c108.142,20.523,98.932,147.346,17.366,181.815c-56.044,23.681-124.981-1.316-129.191-71.568
		C1171.226,1198.297,1208.852,1145.674,1287.261,1160.671L1287.261,1160.671z"/>
	<path style="fill-rule:evenodd;clip-rule:evenodd;fill:#654337;" d="M1289.103,1161.987
		c90.513,21.313,84.724,144.452,12.63,178.657c-21.049,9.735-37.889,8.157-55.781-3.421c-17.629-12.103-35.258-32.363-36.574-66.832
		C1206.484,1206.98,1246.215,1151.725,1289.103,1161.987L1289.103,1161.987z"/>
	<path style="fill-rule:evenodd;clip-rule:evenodd;fill:#FEFEFE;" d="M1291.471,1190.141c14.735-12.63,37.1,16.313,32.364,31.837
		c-1.579,5.526-5.526,7.63-10.525,8.156c-5.262,0.526-11.051-1.052-17.892-6.841
		C1283.314,1213.295,1284.893,1195.929,1291.471,1190.141L1291.471,1190.141z"/>
	<path style="fill-rule:evenodd;clip-rule:evenodd;fill:#654337;" d="M1312.258,898.342
		c118.93,94.196,256.014,270.486,195.497,479.665c-24.207,83.409-86.829,203.654-172.606,273.643
		c-106.826,87.092-240.227,115.509-267.855,123.14c79.462,23.681,113.667,31.311,170.764,41.573
		c194.445-47.888,349.684-264.96,382.838-439.145c33.679-176.815-51.834-376.523-189.445-459.142
		C1424.609,914.129,1305.68,893.343,1312.258,898.342L1312.258,898.342z"/>
	<path style="fill-rule:evenodd;clip-rule:evenodd;fill:#7D5749;" d="M1657.469,1014.904
		c235.754,464.404,17.366,673.846-207.6,812.247c285.484-12.366,389.415-176.552,428.883-285.747
		C1983.736,1250.921,1724.038,1046.741,1657.469,1014.904L1657.469,1014.904z"/>
	<path style="fill-rule:evenodd;clip-rule:evenodd;fill:#654337;" d="M1959.266,1499.042c-19.734,2.894-51.308-2.894-72.094-6.578
		c-3.684-19.471,4.21-57.886,11.84-52.887C1919.798,1453.786,2008.206,1492.464,1959.266,1499.042L1959.266,1499.042z"/>
	<path style="fill-rule:evenodd;clip-rule:evenodd;fill:#F7A37F;" d="M1325.414,1369.587c45.256,6.841,42.362,46.835,6.315,57.886
		c-10.525,3.157-18.945,2.631-27.891-1.316c-8.683-3.684-17.629-10.525-18.418-21.576
		C1284.104,1384.059,1303.838,1366.167,1325.414,1369.587L1325.414,1369.587z"/>
	<path style="fill-rule:evenodd;clip-rule:evenodd;fill:#F7A37F;" d="M784.179,1284.6c45.256,6.841,42.362,46.835,6.315,57.886
		c-10.525,3.157-18.945,2.631-27.891-1.316c-8.946-3.684-17.629-10.262-18.418-21.576
		C742.869,1299.072,762.603,1281.18,784.179,1284.6L784.179,1284.6z"/>
	<path style="fill-rule:evenodd;clip-rule:evenodd;fill:#949553;" d="M952.048,1623.76c-69.463-6.578-76.568,22.628-77.357,49.993
		c-0.526,17.892-2.631,37.626-1.579,37.363c6.578-2.368,35.784-7.367,50.782-13.682
		C966.52,1679.541,961.521,1624.813,952.048,1623.76L952.048,1623.76z"/>
	<path style="fill-rule:evenodd;clip-rule:evenodd;fill:#ABAC60;" d="M1085.449,1570.873
		c-79.988,0.263-179.447,81.303-185.235,109.194c12.367-10.262,45.519-46.572,92.091-71.042
		c48.677-25.259,99.985-26.575,101.038-32.627C1095.448,1563.243,1095.974,1577.977,1085.449,1570.873L1085.449,1570.873z"/>
	<path style="fill-rule:evenodd;clip-rule:evenodd;fill:#FBBD6A;" d="M475.278,1532.984c-31.837-9.998-78.936-1.052-106.826,21.05
		c-0.526-10.261-38.415-26.838-45.256,10.262c-1.316,7.894-0.526,21.313,9.209,26.575c14.208,7.63,38.942,2.105,36.837-28.943
		c-0.263-3.684,52.361-31.311,86.829-21.576C492.906,1550.613,467.91,1542.719,475.278,1532.984L475.278,1532.984z"/>
	<path style="fill-rule:evenodd;clip-rule:evenodd;fill:#FBBD6A;" d="M460.017,1593.238c-33.416-0.789-76.831,20.786-98.669,49.993
		c-2.894-9.735-43.151-15.524-41.31,22.102c0.526,8.156,4.473,21.049,15.261,23.417c15.261,3.421,38.152-8.683,28.68-38.152
		c-1.052-3.684,43.415-44.73,79.199-44.993C481.066,1605.342,455.017,1604.552,460.017,1593.238L460.017,1593.238z"/>
	<path style="fill-rule:evenodd;clip-rule:evenodd;fill:#FBBD6A;" d="M527.375,1629.022c-33.416-0.79-76.831,20.786-98.669,49.993
		c-2.894-9.735-43.151-15.524-41.31,22.102c0.526,8.156,4.473,21.049,15.261,23.417c15.261,3.421,38.152-8.683,28.68-38.152
		c-1.052-3.684,43.415-44.73,79.199-44.993C548.424,1641.126,522.376,1640.599,527.375,1629.022L527.375,1629.022z"/>
	<path style="fill-rule:evenodd;clip-rule:evenodd;fill:#F8BBA6;" d="M583.946,1520.88
		C570,1456.68,436.073,1408.003,386.87,1444.576c-35.258,26.312,6.578,129.454,101.827,92.354
		C525.27,1522.722,567.369,1527.458,583.946,1520.88L583.946,1520.88z"/>
	<path style="fill-rule:evenodd;clip-rule:evenodd;fill:#F7A37F;" d="M592.102,1570.61c-34.732-53.939-175.763-45.783-208.916,7.894
		c-23.944,38.415,49.729,117.614,125.771,44.993C538.163,1595.869,578.946,1583.24,592.102,1570.61L592.102,1570.61z"/>
	<path style="fill-rule:evenodd;clip-rule:evenodd;fill:#F8BBA6;" d="M602.89,1602.711
		c-57.097-21.839-167.343,73.936-165.765,138.663c1.316,46.572,103.669,64.201,126.56-42.888
		C572.631,1657.439,598.943,1621.392,602.89,1602.711L602.89,1602.711z"/>
	<path style="fill-rule:evenodd;clip-rule:evenodd;fill:#ABAC60;" d="M686.035,1531.932c-33.942-29.469-74.726-34.205-114.72-44.73
		c-32.627-8.683,10.788,155.766,21.839,152.346c39.205-11.051,58.939-15.261,98.933-86.566
		c81.041-45.783,214.442-30.259,403.624,39.468c77.62,28.68,148.136,71.568,208.127,118.403l14.998-30.259
		c-26.049-18.682-54.729-37.626-87.355-57.36C998.883,1483.255,765.497,1482.992,686.035,1531.932L686.035,1531.932z"/>
	<path style="fill-rule:evenodd;clip-rule:evenodd;fill:#654337;" d="M776.811,1414.581
		c-57.886,33.416-121.561,82.619-113.93,114.457c13.156,57.097,1.316-34.206,31.048-28.68c0,145.241,16.576,5.263,18.681,2.105
		c2.631-4.736,19.208,1.052,42.099,39.994c3.947,6.841,9.472-12.893-26.838-49.203c-9.735-9.735,17.629-25.786,59.202-41.836
		C783.389,1426.947,785.231,1441.682,776.811,1414.581L776.811,1414.581z"/>
	<path style="fill-rule:evenodd;clip-rule:evenodd;fill:#654337;" d="M1267.264,1525.09
		c-27.364-14.998-231.281-2.368-242.595,49.993c-12.63,57.36,16.05-30.259,40.52-12.63c-62.359,131.033,12.63,12.104,15.787,9.999
		c4.473-2.894,16.84,9.209,20.786,54.203c0.789,7.893,14.208-7.367-2.894-55.781c-7.63-21.576,83.672-14.998,169.185,1.052
		C1268.843,1566.926,1271.737,1527.458,1267.264,1525.09L1267.264,1525.09z"/>
	<path style="fill-rule:evenodd;clip-rule:evenodd;fill:#654337;" d="M869.692,949.387c45.256,6.841,42.099,46.835,6.052,57.886
		c-10.262,3.157-18.681,2.631-27.628-1.316c-8.946-3.684-17.629-10.262-18.418-21.576
		C828.383,963.859,848.116,945.967,869.692,949.387L869.692,949.387z"/>
	<path style="fill-rule:evenodd;clip-rule:evenodd;fill:#654337;" d="M1291.998,1001.748c45.256,7.104,42.362,46.835,6.315,57.886
		c-10.525,3.158-18.944,2.631-27.891-1.052c-8.683-3.947-17.629-10.525-18.418-21.576
		C1250.688,1016.482,1270.422,998.59,1291.998,1001.748L1291.998,1001.748z"/>
	<path style="fill-rule:evenodd;clip-rule:evenodd;fill:#654337;" d="M1093.869,796.252c6.315-64.464-64.464-27.101-51.571,2.631
		c-76.831,44.73-111.036,200.233-88.408,218.651c2.631,1.842,5.525,2.368,9.472,0.789c-3.947-20.26-7.893-116.298,66.569-192.866
		c6.315-6.578,13.945-10.261,22.365-15.524C1065.979,818.881,1091.764,819.933,1093.869,796.252L1093.869,796.252z"/>
	<path style="fill-rule:evenodd;clip-rule:evenodd;fill:#654337;" d="M1319.625,799.673c6.315-64.464-64.464-27.101-51.571,2.631
		c-76.831,44.73-111.036,200.233-88.408,218.651c2.631,1.842,5.526,2.368,9.472,0.789c-3.947-20.26-7.894-116.299,66.569-192.866
		c6.315-6.578,13.945-10.262,22.365-15.524C1291.734,822.301,1317.52,823.353,1319.625,799.673L1319.625,799.673z"/>
	<path style="fill-rule:evenodd;clip-rule:evenodd;fill:#654337;" d="M1520.647,1654.018c22.365,12.893,70.779,61.57,125.508,84.724
		c47.888,20.26,101.301,17.366,132.085,5.789c45.256-17.629,67.095,9.472,66.569,16.05c-0.263,4.736-23.681-2.894-39.468-1.842
		c-0.526,0,66.306,71.042-21.049,18.944c13.156,28.154,29.469,79.725-21.313,8.157c-167.08,15.524-226.808-77.62-265.487-112.878
		C1492.494,1668.227,1518.279,1652.703,1520.647,1654.018L1520.647,1654.018z"/>
	<path style="fill-rule:evenodd;clip-rule:evenodd;fill:#654337;" d="M1816.919,1535.352c16.576,14.471,17.366,23.944,37.363,33.943
		c40.783,20.26,86.566,17.366,112.878,5.525c38.678-17.366,57.36,9.735,57.097,16.05c-0.263,4.999-20.523-2.631-33.942-1.579
		c-0.526,0,56.571,70.779-17.892,18.682c11.051,28.153,25.259,79.725-18.418,8.156c-71.831,7.894-120.508-11.84-155.24-37.889
		L1816.919,1535.352z"/>
</g>
</svg>
