<?xml version="1.0" encoding="utf-8"?>
<!-- Bee Character 2 -->
<svg version="1.1" xmlns="http://www.w3.org/2000/svg" xmlns:xlink="http://www.w3.org/1999/xlink" 
     viewBox="2260 480 1600 1400" xml:space="preserve">
<g>
	<path style="fill-rule:evenodd;clip-rule:evenodd;fill:#BFDDE0;" d="M2715.503,1053.372
		c-87.618-52.624-177.868-203.917-190.761-311.795c-9.999-82.093,33.679-156.556,99.459-126.56
		c109.984,50.256,148.399,319.163,138.4,423.621C2752.339,1048.635,2737.079,1054.161,2715.503,1053.372L2715.503,1053.372z"/>
	<path style="fill-rule:evenodd;clip-rule:evenodd;fill:#BFDDE0;" d="M2639.725,1170.459
		c-101.827,5.789-261.803-68.411-333.371-149.977c-54.466-62.359-60.254-148.662,11.051-160.766
		c119.193-20.26,302.323,180.236,353.105,272.065C2667.615,1145.989,2658.143,1159.145,2639.725,1170.459L2639.725,1170.459z"/>
	<path style="fill-rule:evenodd;clip-rule:evenodd;fill:#F7CA4F;" d="M2661.827,1051.267
		c-142.347,209.705-209.179,516.239,38.415,708.052c409.939,317.847,1205.083-422.305,702-841.979
		C3123.073,684.479,2827.591,807.356,2661.827,1051.267L2661.827,1051.267z"/>
	<path style="fill-rule:evenodd;clip-rule:evenodd;fill:#FCF0E0;" d="M2997.04,1048.372
		c-77.357,84.198,9.472,184.183,98.406,162.081c61.57-14.998,103.406-78.672,63.412-139.979
		C3117.285,1007.326,3053.084,987.066,2997.04,1048.372L2997.04,1048.372z"/>
	<path style="fill-rule:evenodd;clip-rule:evenodd;fill:#654337;" d="M3023.878,1028.112
		c-50.782,65.78,31.048,164.712,100.511,156.556c23.944-2.631,36.573-16.576,43.941-37.363c7.367-20.786,9.472-48.94-10.788-78.409
		C3120.442,1014.43,3051.768,991.802,3023.878,1028.112L3023.878,1028.112z"/>
	<path style="fill-rule:evenodd;clip-rule:evenodd;fill:#FEFEFE;" d="M3068.082,1031.533c-15.787,12.103,8.683,41.046,25.786,39.468
		c5.789-0.526,8.683-3.947,10.525-8.946c1.579-5.262,1.053-11.577-3.42-19.734
		C3093.341,1028.112,3075.449,1025.744,3068.082,1031.533L3068.082,1031.533z"/>
	<path style="fill-rule:evenodd;clip-rule:evenodd;fill:#FCF0E0;" d="M3328.832,880.503c-61.57,66.832,7.367,146.557,78.146,128.928
		c48.94-12.104,82.356-62.622,50.519-111.299C3424.344,847.876,3373.299,831.563,3328.832,880.503L3328.832,880.503z"/>
	<path style="fill-rule:evenodd;clip-rule:evenodd;fill:#654337;" d="M3349.881,864.453
		c-40.257,52.36,24.996,131.033,80.251,124.455c18.944-2.105,29.206-13.156,34.995-29.732c5.789-16.576,7.367-38.942-8.683-62.359
		C3426.975,853.402,3372.247,835.509,3349.881,864.453L3349.881,864.453z"/>
	<path style="fill-rule:evenodd;clip-rule:evenodd;fill:#FEFEFE;" d="M3385.139,867.084c-12.367,9.472,7.104,32.627,20.523,31.311
		c4.736-0.263,7.104-2.894,8.42-7.104c1.316-4.21,0.789-9.209-2.631-15.524C3405.399,864.189,3390.928,862.348,3385.139,867.084
		L3385.139,867.084z"/>
	<path style="fill-rule:evenodd;clip-rule:evenodd;fill:#654337;" d="M3225.163,1018.903c0.263-17.892,31.048,0.526,46.046-9.998
		c16.576-11.841,10.262-46.046,22.365-41.836c13.156,4.473,11.84,36.047-9.209,54.465
		C3259.895,1042.584,3224.9,1031.533,3225.163,1018.903L3225.163,1018.903z"/>
	<path style="fill-rule:evenodd;clip-rule:evenodd;fill:#F7A37F;" d="M3076.501,1297.546c31.048,27.627,83.409-9.736,81.83-44.467
		c-0.526-12.103-7.104-18.945-17.103-23.417c-10.261-4.473-23.944-6.315-39.468,2.631
		C3073.081,1248.869,3059.399,1282.285,3076.501,1297.546L3076.501,1297.546z"/>
	<path style="fill-rule:evenodd;clip-rule:evenodd;fill:#F7A37F;" d="M3475.915,1027.06c24.996,22.365,67.095-7.894,65.78-36.047
		c-0.263-9.735-5.525-15.261-13.682-18.945c-8.156-3.421-19.471-5.262-31.837,2.105
		C3473.021,987.592,3461.97,1014.693,3475.915,1027.06L3475.915,1027.06z"/>
	<path style="fill-rule:evenodd;clip-rule:evenodd;fill:#654337;" d="M3559.85,1181.51c10.788,49.729-1.052,38.942-51.834,38.678
		c-48.15-0.526-71.568,8.946-68.148,21.313c2.631,10.262-0.789-14.472,36.311-2.631c1.052-1.316-31.837,11.577-32.364,21.839
		c-1.052,15.787,15.261-2.895,38.415-6.315c-11.84,12.63-12.63,36.573-6.052,36.573c3.947,0.263,2.894-12.367,15.524-31.048
		c11.84-17.892,39.468-6.578,63.938-5.526C3659.046,1258.604,3553.798,1153.356,3559.85,1181.51L3559.85,1181.51z"/>
	<path style="fill-rule:evenodd;clip-rule:evenodd;fill:#654337;" d="M2632.62,1760.634c12.366-13.156,16.05-21.839,24.207-39.205
		c-12.63-12.63-37.1-44.204-37.1-36.047C2619.465,1708.274,2602.625,1793.524,2632.62,1760.634L2632.62,1760.634z"/>
	<path style="fill-rule:evenodd;clip-rule:evenodd;fill:#654337;" d="M3025.719,1624.865c-2.105,19.997,6.315,72.621-4.21,117.614
		c-8.946,39.468-35.258,71.831-56.57,85.777c-31.574,20.523-24.733,46.572-20.26,49.203c3.157,2.105,8.946-16.05,16.84-25.522
		c0.263-0.526,14.471,73.936,21.576-4.736c11.577,21.049,36.573,54.991,14.735-9.735c86.303-97.88,54.729-177.868,50.256-218.651
		C3047.558,1613.551,3025.719,1622.76,3025.719,1624.865L3025.719,1624.865z"/>
	<path style="fill-rule:evenodd;clip-rule:evenodd;fill:#654337;" d="M2784.966,1664.333c-2.105,16.05,6.315,58.676-4.21,95.249
		c-8.946,31.837-35.258,57.886-56.571,69.2c-31.574,16.576-24.733,37.889-20.26,39.994c3.157,1.579,8.946-13.156,16.84-20.786
		c0.263-0.263,14.471,59.991,21.576-3.684c11.577,16.84,36.573,44.467,14.735-7.894c86.303-79.462,54.729-144.189,50.256-177.079
		C2806.805,1655.124,2784.966,1662.491,2784.966,1664.333L2784.966,1664.333z"/>
	<path style="fill-rule:evenodd;clip-rule:evenodd;fill:#654337;" d="M3335.673,556.867c8.157-84.198-84.461-35.521-67.358,3.157
		c-100.511,58.412-145.241,261.803-115.509,285.484c3.157,2.631,7.104,3.157,12.103,1.052
		c-4.999-26.312-10.261-151.819,87.092-251.804c8.156-8.42,18.155-13.419,29.206-19.997
		C3299.1,586.336,3332.516,587.915,3335.673,556.867L3335.673,556.867z"/>
	<path style="fill-rule:evenodd;clip-rule:evenodd;fill:#654337;" d="M2951.52,624.752c-23.681-81.304-91.565-1.579-61.307,28.153
		c-71.305,91.565-37.1,297.061-0.526,307.849c3.684,1.316,7.894,0.263,11.577-3.684c-14.471-22.365-66.043-136.821-13.156-266.012
		c4.21-10.788,11.577-19.208,19.471-29.469C2928.629,665.535,2960.203,654.484,2951.52,624.752L2951.52,624.752z"/>
	<path style="fill-rule:evenodd;clip-rule:evenodd;fill:#7D5749;" d="M3555.64,1319.648
		c-117.614,95.775-299.955,193.655-491.242,89.46c-76.304-41.573-179.973-128.665-229.966-227.598
		c-61.833-122.876-45.256-241.543-46.835-270.223c-36.837,33.153-65.517,63.149-104.458,110.51
		c4.736,200.233,194.971,428.094,357.841,498.083c165.501,70.779,366.787,31.048,476.771-85.514
		C3523.277,1428.578,3561.955,1314.385,3555.64,1319.648L3555.64,1319.648z"/>
	<path style="fill-rule:evenodd;clip-rule:evenodd;fill:#654337;" d="M3162.804,1488.307c50.519,0,88.145-55.781,112.878-100.248
		c23.417-41.836,43.415-57.623,52.36-48.677c7.631,7.63-12.103-7.894-20.26,30.259c-1.579,0.263,25.786-21.839,34.995-17.366
		c14.209,7.104-10.525,6.578-24.996,24.996c26.838-6.315,62.622,11.577,0.526,16.313c-53.939,4.21-24.996,111.825-127.349,131.823
		C3174.645,1528.564,3157.805,1488.307,3162.804,1488.307L3162.804,1488.307z"/>
	<path style="fill-rule:evenodd;clip-rule:evenodd;fill:#7D5749;" d="M3400.663,1607.499
		c-117.614,95.775-307.849,92.355-503.346-3.42c-208.39-102.353-282.063-288.378-293.377-453.09
		c-37.1,74.989-54.992,153.398-61.307,184.973c7.894,335.213,296.009,485.717,639.115,436.777
		C3246.476,1763.528,3406.978,1602.237,3400.663,1607.499L3400.663,1607.499z"/>
	<path style="fill-rule:evenodd;clip-rule:evenodd;fill:#CAEAED;" d="M2661.563,1158.882
		c-95.512,36.047-270.223,13.419-363.104-43.151c-70.516-43.152-101.827-123.666-37.626-156.556
		c107.615-55.255,342.58,81.304,418.358,153.661C2680.771,1127.045,2675.509,1142.569,2661.563,1158.882L2661.563,1158.882z"/>
	<path style="fill-rule:evenodd;clip-rule:evenodd;fill:#CAEAED;" d="M2699.189,1082.578
		c-100.248-18.682-237.596-129.191-287.325-225.756c-37.889-73.41-22.628-158.397,49.203-153.135
		c120.772,8.946,250.226,247.594,277.327,348.895C2732.342,1065.738,2719.713,1076,2699.189,1082.578L2699.189,1082.578z"/>
</g>
</svg>
