<?xml version="1.0" encoding="utf-8"?>
<!-- Bee Character 3 -->
<svg version="1.1" xmlns="http://www.w3.org/2000/svg" xmlns:xlink="http://www.w3.org/1999/xlink" 
     viewBox="620 2340 1800 1200" xml:space="preserve">
<g>
	<path style="fill-rule:evenodd;clip-rule:evenodd;fill:#654337;" d="M787.657,3119.571c-16.807,11.485-53.784,54.905-95.243,75.074
		c-36.136,17.928-76.755,14.847-99.725,3.922c-59.667-28.013-66.95-15.407-20.729,12.886c0.28,0.28-50.703,63.309,15.687,17.087
		c-10.085,25.212-22.971,71.713,15.967,7.564c126.337,15.407,171.998-67.791,201.691-99.445
		C809.227,3132.737,789.618,3118.451,787.657,3119.571L787.657,3119.571z"/>
	<path style="fill-rule:evenodd;clip-rule:evenodd;fill:#BFDDE0;" d="M1263.592,2649.519c57.986-67.511,90.761-217.378,71.712-310.1
		c-14.286-70.592-71.152-120.175-117.093-77.035c-77.035,71.992-34.455,304.778,2.521,388.255
		C1231.938,2655.961,1246.224,2656.522,1263.592,2649.519L1263.592,2649.519z"/>
	<path style="fill-rule:evenodd;clip-rule:evenodd;fill:#BFDDE0;" d="M1358.555,2725.433
		c85.999-23.25,197.489-128.578,234.186-215.978c27.733-66.39,8.684-139.223-53.504-129.699
		c-104.207,16.247-200.01,232.505-216.538,322.426C1328.862,2712.827,1340.347,2721.231,1358.555,2725.433L1358.555,2725.433z"/>
	<path style="fill-rule:evenodd;clip-rule:evenodd;fill:#654337;" d="M1759.136,3136.379c-17.928,2.521-46.221-2.521-64.989-5.883
		c-3.361-17.648,3.922-52.384,10.645-47.622C1723.56,3095.76,1803.116,3130.216,1759.136,3136.379L1759.136,3136.379z"/>
	<path style="fill-rule:evenodd;clip-rule:evenodd;fill:#F7C94F;" d="M1170.59,2572.484
		c-252.394-18.208-502.267,99.165-543.166,408.985c-27.452,208.974,126.337,403.662,313.742,480.417
		c156.591,64.149,332.23,35.576,485.46-34.175c118.494-53.784,277.886-251.834,278.726-335.312
		C1708.434,2812.272,1464.163,2593.493,1170.59,2572.484L1170.59,2572.484z"/>
	<path style="fill-rule:evenodd;clip-rule:evenodd;fill:#654337;" d="M955.733,2979.508c13.166-17.088,9.524,24.091,21.57,39.498
		c14.286,18.769,33.335,20.169,47.061,12.045c15.407-9.524,25.212-30.253,31.654-33.055c20.449-9.804-11.205,80.116-71.993,52.944
		C952.091,3036.654,944.808,2994.074,955.733,2979.508L955.733,2979.508z"/>
	<path style="fill-rule:evenodd;clip-rule:evenodd;fill:#654337;" d="M717.065,2858.773c-1.401-1.961-17.928-31.935-29.974-33.055
		c-19.889-2.241-0.28,34.175,18.208,39.498C710.062,2866.617,713.423,2866.897,717.065,2858.773L717.065,2858.773z"/>
	<path style="fill-rule:evenodd;clip-rule:evenodd;fill:#654337;" d="M753.201,2834.683c-0.28-2.521-2.801-36.417-13.166-43.98
		c-17.368-12.045-14.847,29.134-0.28,43.42C743.677,2837.764,746.758,2839.725,753.201,2834.683L753.201,2834.683z"/>
	<path style="fill-rule:evenodd;clip-rule:evenodd;fill:#654337;" d="M806.986,2821.236c0.28-2.521,7.283-36.417-1.121-43.98
		c-13.726-12.045-22.97,29.133-12.045,43.42C796.341,2824.318,798.862,2826.279,806.986,2821.236L806.986,2821.236z"/>
	<path style="fill-rule:evenodd;clip-rule:evenodd;fill:#654337;" d="M1213.73,2955.137c-1.401-1.961-17.928-31.934-29.974-33.055
		c-19.889-2.241-0.56,34.176,18.208,39.498C1206.726,2962.98,1210.088,2963.26,1213.73,2955.137L1213.73,2955.137z"/>
	<path style="fill-rule:evenodd;clip-rule:evenodd;fill:#654337;" d="M1249.866,2931.046c-0.28-2.521-2.801-36.417-13.166-43.98
		c-17.368-12.046-14.847,29.133-0.28,43.42C1240.342,2934.127,1243.423,2936.088,1249.866,2931.046L1249.866,2931.046z"/>
	<path style="fill-rule:evenodd;clip-rule:evenodd;fill:#654337;" d="M1303.651,2917.6c0.28-2.521,7.283-36.417-1.121-43.98
		c-13.726-12.045-22.97,29.133-12.045,43.42C1293.006,2920.681,1295.527,2922.642,1303.651,2917.6L1303.651,2917.6z"/>
	<path style="fill-rule:evenodd;clip-rule:evenodd;fill:#FCF0E0;" d="M766.367,2818.155
		c-112.331,21.29-102.526,153.229-18.208,188.806c58.546,24.371,129.979-1.401,134.18-74.234
		C886.822,2857.373,847.604,2802.748,766.367,2818.155L766.367,2818.155z"/>
	<path style="fill-rule:evenodd;clip-rule:evenodd;fill:#654337;" d="M799.702,2818.155
		c-79.836,22.41-73.113,150.148-12.886,185.164c20.729,12.045,39.218,8.684,57.426-3.642c18.488-12.326,36.696-33.615,38.097-69.191
		C885.421,2864.656,843.682,2805.83,799.702,2818.155L799.702,2818.155z"/>
	<path style="fill-rule:evenodd;clip-rule:evenodd;fill:#FEFEFE;" d="M833.318,2847.008c-20.169,0.56-17.648,38.097-3.361,47.061
		c5.322,3.081,9.524,2.241,14.006-0.84c4.482-3.081,7.844-8.684,8.964-17.648C855.448,2859.614,842.282,2847.008,833.318,2847.008
		L833.318,2847.008z"/>
	<path style="fill-rule:evenodd;clip-rule:evenodd;fill:#FCF0E0;" d="M1256.869,2920.681
		c-112.331,21.29-102.526,152.949-18.208,188.525c58.266,24.651,129.979-1.401,134.18-74.234
		C1377.324,2959.899,1338.106,2904.994,1256.869,2920.681L1256.869,2920.681z"/>
	<path style="fill-rule:evenodd;clip-rule:evenodd;fill:#654337;" d="M1289.924,2920.401
		c-79.556,22.69-72.833,150.428-12.606,185.444c20.729,11.765,39.218,8.404,57.426-3.642c18.488-12.326,36.696-33.615,38.097-69.191
		C1375.923,2967.182,1334.184,2908.075,1289.924,2920.401L1289.924,2920.401z"/>
	<path style="fill-rule:evenodd;clip-rule:evenodd;fill:#FEFEFE;" d="M1323.539,2949.534c-19.889,0.28-17.368,38.097-3.081,47.062
		c5.042,2.801,9.524,1.961,14.006-0.84c4.482-3.362,7.844-8.684,8.964-17.648C1345.949,2961.86,1332.784,2949.534,1323.539,2949.534
		L1323.539,2949.534z"/>
	<path style="fill-rule:evenodd;clip-rule:evenodd;fill:#F7A37F;" d="M791.019,3087.917c-6.163-50.423-75.074-54.625-98.324-19.609
		c-7.844,11.765-7.563,23.531-2.241,35.576c5.322,12.046,15.127,24.651,34.176,27.733
		C764.126,3138.62,793.539,3108.646,791.019,3087.917L791.019,3087.917z"/>
	<path style="fill-rule:evenodd;clip-rule:evenodd;fill:#F7A37F;" d="M1358.275,3213.974c-6.163-50.423-75.074-54.625-98.324-19.609
		c-7.844,11.766-7.563,23.531-2.241,35.576c5.322,12.045,15.127,24.651,34.176,27.732
		C1331.383,3264.677,1360.796,3234.703,1358.275,3213.974L1358.275,3213.974z"/>
	<path style="fill-rule:evenodd;clip-rule:evenodd;fill:#F5B25A;" d="M1321.859,2766.052c4.482-34.175-51.823-74.794-80.957-59.387
		c-10.085,5.323-20.729,30.254-18.208,39.778c2.521,9.244,9.524,20.449,27.172,28.013
		C1286.002,2790.702,1320.178,2780.338,1321.859,2766.052L1321.859,2766.052z"/>
	<path style="fill-rule:evenodd;clip-rule:evenodd;fill:#F5B25A;" d="M810.908,2717.59c4.202-34.456-51.824-75.074-80.957-59.387
		c-10.085,5.322-20.729,30.254-18.208,39.498c2.521,9.524,9.524,20.449,27.172,28.293
		C775.051,2741.96,809.227,2731.596,810.908,2717.59L810.908,2717.59z"/>
	<path style="fill-rule:evenodd;clip-rule:evenodd;fill:#AC87C4;" d="M837.8,2639.154c-0.28-0.28,26.051,1.961,44.82,15.967
		c23.811,17.928,38.938,48.742,7.283,49.582c-24.371,0.56-39.778-40.618-48.742-57.706
		C840.321,2645.597,837.8,2639.154,837.8,2639.154L837.8,2639.154z"/>
	<path style="fill-rule:evenodd;clip-rule:evenodd;fill:#AC87C4;" d="M823.513,2647.558c0-0.28,14.847,21.57,15.687,44.82
		c1.401,29.973-13.166,61.067-33.895,36.977c-15.687-18.489,6.723-56.586,14.286-73.953
		C820.152,2653.72,823.513,2647.838,823.513,2647.558L823.513,2647.558z"/>
	<path style="fill-rule:evenodd;clip-rule:evenodd;fill:#AC87C4;" d="M808.947,2630.19c0-0.28-4.202,26.052-19.329,43.419
		c-19.889,22.69-51.823,35.296-50.143,3.642c1.121-24.371,43.7-36.697,61.068-44.26
		C802.224,2632.431,808.667,2630.47,808.947,2630.19L808.947,2630.19z"/>
	<path style="fill-rule:evenodd;clip-rule:evenodd;fill:#AC87C4;" d="M816.79,2616.744c0.28,0.28-26.332,0.56-46.221-11.485
		c-25.491-15.687-43.42-45.1-12.045-48.742C789.058,2552.875,809.507,2612.542,816.79,2616.744L816.79,2616.744z"/>
	<path style="fill-rule:evenodd;clip-rule:evenodd;fill:#AC87C4;" d="M826.034,2617.865c0,0.28-9.804-24.371-5.602-47.062
		c5.322-29.693,26.332-56.865,41.179-28.853C875.897,2569.403,827.435,2609.741,826.034,2617.865L826.034,2617.865z"/>
	<path style="fill-rule:evenodd;clip-rule:evenodd;fill:#AC87C4;" d="M836.119,2629.91c-0.28,0,13.446-22.69,33.895-33.335
		c26.612-13.726,61.068-13.726,47.902,15.127C905.03,2639.714,843.682,2625.988,836.119,2629.91L836.119,2629.91z"/>
	<path style="fill-rule:evenodd;clip-rule:evenodd;fill:#FFE469;" d="M792.979,2637.473c3.922,13.446,21.85,23.25,29.413,22.69
		c13.166-0.84,28.013-13.726,29.133-26.612C855.168,2593.773,779.534,2593.213,792.979,2637.473L792.979,2637.473z"/>
	<path style="fill-rule:evenodd;clip-rule:evenodd;fill:#654337;" d="M1299.168,2495.729c5.602-57.426-58.266-24.091-46.501,2.241
		c-69.191,39.778-100.285,178.441-79.836,194.688c2.241,1.681,5.042,1.961,8.404,0.56c-3.361-17.928-7.003-103.367,60.227-171.438
		c5.603-5.883,12.326-9.244,19.889-13.726C1273.677,2515.898,1296.927,2517.019,1299.168,2495.729L1299.168,2495.729z"/>
	<path style="fill-rule:evenodd;clip-rule:evenodd;fill:#654337;" d="M968.059,2454.27c-22.13-53.224-62.749,5.603-39.778,23.531
		c-42.299,67.231-3.922,203.932,21.85,208.695c2.801,0.56,5.603-0.28,7.844-3.362c-11.485-14.006-55.185-87.96-28.573-179.281
		c2.241-7.563,6.723-13.726,11.205-21.29C955.453,2483.684,976.462,2473.879,968.059,2454.27L968.059,2454.27z"/>
	<path style="fill-rule:evenodd;clip-rule:evenodd;fill:#7D5749;" d="M1454.359,2662.685
		c234.186,244.27,120.174,646.252-149.307,809.846c292.452-95.803,356.601-243.43,392.177-341.475
		C1791.631,2869.418,1514.306,2691.258,1454.359,2662.685L1454.359,2662.685z"/>
	<path style="fill-rule:evenodd;clip-rule:evenodd;fill:#7D5749;" d="M1267.794,2587.051
		c103.927,77.875,226.062,218.499,277.606,340.074c-4.762-114.012-75.914-254.075-136.982-289.931
		C1402.815,2633.832,1355.194,2613.663,1267.794,2587.051L1267.794,2587.051z"/>
	<path style="fill-rule:evenodd;clip-rule:evenodd;fill:#CAEAED;" d="M1388.809,2675.01c76.474-1.681,191.326-66.39,239.788-131.66
		c36.977-49.582,36.136-114.292-17.648-119.334c-90.201-8.124-214.857,152.669-247.352,224.101
		C1366.679,2658.483,1374.522,2667.727,1388.809,2675.01L1388.809,2675.01z"/>
	<path style="fill-rule:evenodd;clip-rule:evenodd;fill:#CAEAED;" d="M1341.187,2632.991
		c64.429-41.179,128.858-156.591,136.142-237.548c5.603-61.628-28.573-116.252-77.035-92.442
		c-81.237,40.058-104.207,242.03-94.403,319.905C1313.735,2630.19,1325.22,2634.112,1341.187,2632.991L1341.187,2632.991z"/>
	<path style="fill-rule:evenodd;clip-rule:evenodd;fill:#654337;" d="M1503.941,3297.452c19.609,3.642,70.032,28.853,115.132,31.655
		c39.498,2.241,74.234-16.248,90.481-35.296c23.811-28.013,48.742-12.326,50.703-6.723c1.681,3.922-16.808,4.762-27.172,10.365
		c-0.28,0.28,70.592,38.377-7.003,21.85c19.049,19.049,49.302,56.586-11.485,12.886c-105.888,63.309-180.401,5.042-219.339-12.325
		C1490.215,3317.621,1501.7,3296.891,1503.941,3297.452L1503.941,3297.452z"/>
	<path style="fill-rule:evenodd;clip-rule:evenodd;fill:#654337;" d="M1617.672,3171.955c14.006,2.521,48.182,19.889,80.677,20.169
		c28.012,0.28,54.064-15.127,67.23-30.253c19.049-22.41,35.576-11.205,36.697-7.284c0.84,3.082-12.606,4.482-20.169,9.244
		c-0.28,0,48.182,26.612-6.723,16.808c12.606,14.006,31.654,41.459-8.964,10.365c-80.396,52.384-129.699,10.365-156.311-1.401
		C1606.467,3187.922,1616.272,3171.955,1617.672,3171.955L1617.672,3171.955z"/>
	<path style="fill-rule:evenodd;clip-rule:evenodd;fill:#654337;" d="M1239.501,3257.954
		c-17.088,11.485-54.064,54.625-95.523,75.074c-36.136,17.648-76.475,14.847-99.725,3.922
		c-59.667-28.013-66.95-15.687-20.729,12.606c0.56,0.28-50.423,63.589,15.967,17.368c-10.085,24.931-23.25,71.432,15.967,7.283
		c126.057,15.687,171.998-67.791,201.411-99.165C1260.791,3270.84,1241.182,3256.553,1239.501,3257.954L1239.501,3257.954z"/>
</g>
</svg>
