<?xml version="1.0" encoding="utf-8"?>
<!-- Bee Character 4 -->
<svg version="1.1" xmlns="http://www.w3.org/2000/svg" xmlns:xlink="http://www.w3.org/1999/xlink" 
     viewBox="2420 2280 1300 1300" xml:space="preserve">
<g>
	<path style="fill-rule:evenodd;clip-rule:evenodd;fill:#654337;" d="M2485.83,3349.431c17.6-3.791,42.51-18.141,58.757-27.348
		c-2.708-17.6-21.12-47.655-25.994-40.885C2505.325,3299.339,2442.778,3358.908,2485.83,3349.431L2485.83,3349.431z"/>
	<path style="fill-rule:evenodd;clip-rule:evenodd;fill:#BFDDE0;" d="M2831.059,2628.106
		c56.049-65.796,87.187-211.74,68.233-301.635c-14.351-68.504-69.858-116.43-114.264-74.461
		c-74.461,70.4-31.951,296.219,4.332,377.179C2800.462,2634.605,2814.271,2634.605,2831.059,2628.106L2831.059,2628.106z"/>
	<path style="fill-rule:evenodd;clip-rule:evenodd;fill:#BFDDE0;" d="M2703.256,2712.315
		c-9.477-85.833-93.956-208.761-172.208-256.688c-59.84-36.825-132.405-29.243-132.676,31.68
		c0,102.35,193.328,226.903,276.995,256.146C2686.74,2739.121,2696.487,2729.373,2703.256,2712.315L2703.256,2712.315z"/>
	<path style="fill-rule:evenodd;clip-rule:evenodd;fill:#F7A37F;" d="M3504.728,2850.948
		c70.4,259.937-92.873,478.175-328.712,579.442c-301.635,129.698-587.024-4.603-650.925-109.661
		c-95.039-156.504-58.215-542.076,244.774-699.122C3033.322,2485.412,3404.273,2481.621,3504.728,2850.948L3504.728,2850.948z"/>
	<path style="fill-rule:evenodd;clip-rule:evenodd;fill:#654337;" d="M3116.448,2895.625c5.957-16.787,29.243,10.289,46.572,4.874
		c19.225-5.957,24.098-40.344,34.117-32.492c10.831,8.394,0,37.637-25.723,48.467
		C3141.899,2928.929,3112.386,2907.539,3116.448,2895.625L3116.448,2895.625z"/>
	<path style="fill-rule:evenodd;clip-rule:evenodd;fill:#654337;" d="M3190.908,2383.604c9.477-94.768-94.769-40.074-75.815,3.791
		c-112.91,65.526-163.543,294.595-129.968,321.13c3.52,2.979,8.123,3.52,13.809,1.083c-5.686-29.514-11.372-170.584,98.018-283.223
		c8.935-9.747,20.308-15.163,32.763-22.744C3149.752,2416.637,3187.659,2418.533,3190.908,2383.604L3190.908,2383.604z"/>
	<path style="fill-rule:evenodd;clip-rule:evenodd;fill:#654337;" d="M3408.064,2486.495c51.175-55.237-40.615-70.399-49.551-33.846
		c-102.079-12.726-243.149,106.953-235.026,139.716c0.813,3.52,3.52,5.957,8.123,7.04c10.56-21.12,74.461-112.639,196.848-131.052
		c10.289-1.625,20.037,0.271,31.409,1.354C3366.366,2487.578,3389.11,2506.803,3408.064,2486.495L3408.064,2486.495z"/>
	<path style="fill-rule:evenodd;clip-rule:evenodd;fill:#7D5749;" d="M2803.44,2605.362
		c-61.735,145.402-113.993,378.262,12.997,555.885c50.634,70.941,146.485,160.565,242.337,190.62
		c119.408,37.366,238.817-2.166,264.269-7.311c-62.006,48.738-107.224,67.15-157.316,90.165
		c-175.999,40.074-350.102-68.233-441.622-223.925c-93.144-157.857-106.412-402.631-25.181-544.784
		C2702.986,2658.974,2806.96,2597.51,2803.44,2605.362L2803.44,2605.362z"/>
	<path style="fill-rule:evenodd;clip-rule:evenodd;fill:#CAEAED;" d="M2720.585,2738.038
		c-87.458-60.381-171.396-223.654-177.894-336.564c-4.874-85.833,45.489-160.295,111.556-124.824
		c111.285,59.569,133.218,341.438,116.159,449.474C2759.034,2735.872,2742.788,2740.475,2720.585,2738.038L2720.585,2738.038z"/>
	<path style="fill-rule:evenodd;clip-rule:evenodd;fill:#CAEAED;" d="M2652.081,2800.315
		c-85.833-8.936-209.303-92.873-257.771-170.854c-36.824-59.298-29.784-132.135,31.138-132.676
		c102.35-0.541,227.986,191.974,257.5,275.641C2678.887,2783.798,2669.14,2793.545,2652.081,2800.315L2652.081,2800.315z"/>
	<path style="fill-rule:evenodd;clip-rule:evenodd;fill:#654337;" d="M2834.579,2927.846c2.166-5.957,49.28,53.341,105.328,54.153
		c48.468,0.542,82.855-77.981,95.039-73.378c15.163,5.957-25.452,88-94.498,94.227
		C2865.446,3009.889,2832.142,2934.886,2834.579,2927.846L2834.579,2927.846z"/>
	<path style="fill-rule:evenodd;clip-rule:evenodd;fill:#654337;" d="M2999.476,2969.544c1.083,2.437,11.372,36.824,23.828,40.886
		c20.037,6.499,7.852-35.47-10.289-44.947C3008.411,2963.046,3004.891,2961.963,2999.476,2969.544L2999.476,2969.544z"/>
	<path style="fill-rule:evenodd;clip-rule:evenodd;fill:#654337;" d="M2956.695,2986.332c-0.271,2.708-5.145,38.449,4.062,48.468
		c15.163,16.246,21.661-26.806,9.477-44.677C2967.254,2985.249,2964.547,2982.541,2956.695,2986.332L2956.695,2986.332z"/>
	<path style="fill-rule:evenodd;clip-rule:evenodd;fill:#654337;" d="M2898.209,2988.498c-0.813,2.437-15.705,36.012-8.665,45.489
		c11.643,15.705,30.055-24.911,22.203-41.969C2909.581,2987.685,2907.686,2984.978,2898.209,2988.498L2898.209,2988.498z"/>
	<path style="fill-rule:evenodd;clip-rule:evenodd;fill:#654337;" d="M3238.834,2807.354c0.542-6.228,54.966,46.301,104.245,38.99
		c42.51-6.228,54.966-89.083,66.609-86.104c14.621,3.791-2.437,90.978-61.464,106.953
		C3284.323,2884.794,3238.293,2814.665,3238.834,2807.354L3238.834,2807.354z"/>
	<path style="fill-rule:evenodd;clip-rule:evenodd;fill:#654337;" d="M3392.359,2825.767c1.354,2.166,18.412,35.2,30.055,37.366
		c18.954,3.791-1.083-36.283-18.954-43.323C3398.587,2817.914,3395.338,2817.373,3392.359,2825.767L3392.359,2825.767z"/>
	<path style="fill-rule:evenodd;clip-rule:evenodd;fill:#654337;" d="M3358.784,2848.511c0.271,2.708,4.062,38.99,14.621,47.655
		c16.788,14.08,12.726-29.784-1.895-46.031C3367.719,2846.074,3364.741,2843.637,3358.784,2848.511L3358.784,2848.511z"/>
	<path style="fill-rule:evenodd;clip-rule:evenodd;fill:#654337;" d="M3308.151,2858.8c-0.271,2.708-5.686,38.178,2.708,46.572
		c13.809,14.08,20.578-28.972,9.748-44.948C3317.898,2856.363,3315.461,2853.927,3308.151,2858.8L3308.151,2858.8z"/>
	<path style="fill-rule:evenodd;clip-rule:evenodd;fill:#FCDA7C;" d="M2906.332,3147.709c17.058,43.594,88.541,32.763,104.787-2.979
		c5.686-12.455,2.708-22.474-5.415-32.221c-7.852-9.477-20.578-18.683-40.886-17.6
		C2927.722,3097.076,2897.126,3123.611,2906.332,3147.709L2906.332,3147.709z"/>
	<path style="fill-rule:evenodd;clip-rule:evenodd;fill:#FCDA7C;" d="M3422.956,2958.172c12.997,33.034,67.15,24.911,79.335-2.437
		c4.332-9.206,2.166-17.058-3.791-24.098c-5.957-7.311-15.975-14.351-31.138-13.538
		C3439.202,2919.723,3415.916,2939.76,3422.956,2958.172L3422.956,2958.172z"/>
	<path style="fill-rule:evenodd;clip-rule:evenodd;fill:#7D5749;" d="M2856.24,3480.482
		c-326.546-202.534-377.721-497.671-288.909-670.962c-108.307,158.67-100.996,320.859-83.938,404.526
		c8.123,40.073,21.661,77.169,41.698,106.682C2617.423,3455.842,2811.563,3484.814,2856.24,3480.482L2856.24,3480.482z"/>
	<path style="fill-rule:evenodd;clip-rule:evenodd;fill:#F8BBA6;" d="M3269.972,2602.113c2.979,32.763,63.36,24.098,81.501,2.979
		c6.228-7.311,6.228-14.892,2.708-23.015c-3.52-7.852-10.56-16.788-24.369-20.037
		C3313.024,2558.249,3267.806,2578.556,3269.972,2602.113L3269.972,2602.113z"/>
	<path style="fill-rule:evenodd;clip-rule:evenodd;fill:#F8BBA6;" d="M2817.25,2732.352c12.997,30.326,67.963,3.791,78.793-21.932
		c3.791-8.935,1.354-15.975-4.332-22.744c-5.957-6.498-15.163-12.726-29.514-11.643
		C2845.138,2677.386,2808.314,2710.69,2817.25,2732.352L2817.25,2732.352z"/>
	<path style="fill-rule:evenodd;clip-rule:evenodd;fill:#654337;" d="M2855.157,3328.853c-10.831,12.997-29.784,54.424-58.486,81.23
		c-24.911,23.827-58.757,34.117-80.418,33.846c-32.221-0.271-39.532,21.661-37.907,25.452c1.354,2.978,14.08-7.04,24.369-10.019
		c0.271-0.271-24.911,59.298,17.329,6.769c-1.625,20.308,0,56.32,15.163,0c107.224-28.701,122.658-100.184,138.633-131.051
		C2876.006,3331.019,2856.24,3327.499,2855.157,3328.853L2855.157,3328.853z"/>
	<path style="fill-rule:evenodd;clip-rule:evenodd;fill:#654337;" d="M2638.814,3346.182c-11.102,5.957-35.741,28.701-62.818,38.99
		c-23.827,8.935-49.821,6.769-64.713,0.271c-21.661-9.477-33.034,3.52-32.763,6.769c0,2.166,11.643-1.083,19.225-0.271
		c0.271,0-33.846,33.575,10.018,9.748c-7.04,13.539-15.975,38.449,10.289,4.332c81.23,10.831,112.368-33.575,131.864-50.092
		C2652.623,3353.763,2640.167,3345.64,2638.814,3346.182L2638.814,3346.182z"/>
	<path style="fill-rule:evenodd;clip-rule:evenodd;fill:#654337;" d="M3516.371,2981.458c11.914,55.778-1.354,43.865-58.486,43.323
		c-53.883-0.271-80.418,10.56-76.627,24.098c2.979,11.643-1.083-16.246,40.886-2.708c1.083-1.625-36.012,12.997-36.554,24.64
		c-1.083,17.6,17.329-3.52,43.323-7.311c-13.539,14.351-14.351,41.157-6.769,41.427c4.332,0,3.249-14.08,17.329-35.47
		c13.538-19.766,44.406-7.311,72.024-5.957C3627.927,3068.104,3509.602,2949.778,3516.371,2981.458L3516.371,2981.458z"/>
	<path style="fill-rule:evenodd;clip-rule:evenodd;fill:#654337;" d="M2995.685,3223.253c46.031,33.304,117.242,7.582,169.23-16.517
		c49.009-22.745,77.439-23.828,79.876-9.748c1.895,11.914-5.957-15.163-38.449,14.351c-1.625-0.812,37.907-2.978,43.323,7.311
		c8.123,15.705-14.08-1.083-39.261,6.228c28.701,11.914,49.28,51.717-10.289,15.163c-51.987-31.95-96.935,85.292-203.346,35.741
		C2979.981,3267.93,2991.353,3220.004,2995.685,3223.253L2995.685,3223.253z"/>
</g>
</svg>
