<?xml version="1.0" encoding="utf-8"?>
<!-- Generator: Adobe Illustrator 27.5.0, SVG Export Plug-In . SVG Version: 6.00 Build 0)  -->
<svg version="1.1" id="Ñëîé_1" xmlns="http://www.w3.org/2000/svg" xmlns:xlink="http://www.w3.org/1999/xlink" x="0px" y="0px"
	 viewBox="0 0 4000 4000" style="enable-background:new 0 0 4000 4000;" xml:space="preserve">
<rect style="fill-rule:evenodd;clip-rule:evenodd;fill:#FFFFFF;" width="4000" height="4000"/>
<g>
	<path style="fill-rule:evenodd;clip-rule:evenodd;fill:#CAE8EB;" d="M1406.191,948.861
		c-32.89-86.303-12.367-244.438,38.678-328.635c38.942-63.938,111.562-92.354,141.558-34.205
		c49.993,97.354-73.147,309.953-138.664,378.891C1434.871,966.227,1420.926,961.491,1406.191,948.861L1406.191,948.861z"/>
	<path style="fill-rule:evenodd;clip-rule:evenodd;fill:#BFDDE0;" d="M1377.248,967.016
		c-63.412-79.988-94.723-253.383-68.937-358.893c19.734-80.251,87.092-134.717,137.874-83.409
		c85.25,85.776,26.312,351-19.734,445.196C1413.295,975.699,1396.982,975.436,1377.248,967.016L1377.248,967.016z"/>
	<path style="fill-rule:evenodd;clip-rule:evenodd;fill:#BFDDE0;" d="M1543.276,1007.273
		c35.784-85.25,159.976-185.499,254.699-210.758c72.358-19.471,144.715,10.262,126.297,72.884
		c-31.048,104.984-267.065,173.658-361.788,178.131C1551.959,1039.637,1545.381,1026.744,1543.276,1007.273L1543.276,1007.273z"/>
	<path style="fill-rule:evenodd;clip-rule:evenodd;fill:#ACCCCF;" d="M1480.127,978.067
		c-6.315-101.827,67.095-262.066,148.662-333.898c61.833-54.729,148.136-61.043,160.502,9.999
		c21.05,119.193-178.657,303.375-270.486,354.42C1504.86,1005.958,1491.704,996.485,1480.127,978.067L1480.127,978.067z"/>
	<path style="fill-rule:evenodd;clip-rule:evenodd;fill:#FBBD6A;" d="M779.969,1358.01c0,300.745,189.708,420.2,473.613,460.457
		c812.51,114.983,842.243-756.729,168.396-902.496C1098.079,845.982,779.969,930.443,779.969,1358.01L779.969,1358.01z"/>
	<path style="fill-rule:evenodd;clip-rule:evenodd;fill:#654337;" d="M974.15,1194.087c11.84-16.313,27.628,20.523,47.888,20.523
		c22.628,0,39.205-34.732,47.361-23.155c8.946,12.63-12.63,40.257-43.678,43.151C990.201,1237.765,965.73,1205.138,974.15,1194.087
		L974.15,1194.087z"/>
	<path style="fill-rule:evenodd;clip-rule:evenodd;fill:#FCF0E0;" d="M868.903,1091.734
		c93.933,17.629,85.777,127.875,15.261,157.608c-48.94,20.523-108.668-1.052-112.352-62.096
		C768.128,1124.361,801.018,1078.578,868.903,1091.734L868.903,1091.734z"/>
	<path style="fill-rule:evenodd;clip-rule:evenodd;fill:#654337;" d="M870.482,1092.787c78.672,18.681,73.41,125.508,10.788,154.977
		c-18.155,8.683-32.89,7.367-48.151-2.894c-15.524-10.262-30.785-28.153-31.837-57.886
		C798.913,1131.728,833.119,1084.104,870.482,1092.787L870.482,1092.787z"/>
	<path style="fill-rule:evenodd;clip-rule:evenodd;fill:#FEFEFE;" d="M872.587,1117.257c12.63-10.788,32.1,14.208,27.891,27.627
		c-1.316,4.736-4.473,6.578-8.946,7.104c-4.473,0.526-9.735-1.053-15.524-5.789C865.482,1137.517,866.798,1122.256,872.587,1117.257
		L872.587,1117.257z"/>
	<path style="fill-rule:evenodd;clip-rule:evenodd;fill:#FCF0E0;" d="M1287.261,1160.671
		c108.142,20.523,98.932,147.346,17.366,181.815c-56.044,23.681-124.981-1.316-129.191-71.568
		C1171.226,1198.297,1208.852,1145.674,1287.261,1160.671L1287.261,1160.671z"/>
	<path style="fill-rule:evenodd;clip-rule:evenodd;fill:#654337;" d="M1289.103,1161.987
		c90.513,21.313,84.724,144.452,12.63,178.657c-21.049,9.735-37.889,8.157-55.781-3.421c-17.629-12.103-35.258-32.363-36.574-66.832
		C1206.484,1206.98,1246.215,1151.725,1289.103,1161.987L1289.103,1161.987z"/>
	<path style="fill-rule:evenodd;clip-rule:evenodd;fill:#FEFEFE;" d="M1291.471,1190.141c14.735-12.63,37.1,16.313,32.364,31.837
		c-1.579,5.526-5.526,7.63-10.525,8.156c-5.262,0.526-11.051-1.052-17.892-6.841
		C1283.314,1213.295,1284.893,1195.929,1291.471,1190.141L1291.471,1190.141z"/>
	<path style="fill-rule:evenodd;clip-rule:evenodd;fill:#654337;" d="M1312.258,898.342
		c118.93,94.196,256.014,270.486,195.497,479.665c-24.207,83.409-86.829,203.654-172.606,273.643
		c-106.826,87.092-240.227,115.509-267.855,123.14c79.462,23.681,113.667,31.311,170.764,41.573
		c194.445-47.888,349.684-264.96,382.838-439.145c33.679-176.815-51.834-376.523-189.445-459.142
		C1424.609,914.129,1305.68,893.343,1312.258,898.342L1312.258,898.342z"/>
	<path style="fill-rule:evenodd;clip-rule:evenodd;fill:#7D5749;" d="M1657.469,1014.904
		c235.754,464.404,17.366,673.846-207.6,812.247c285.484-12.366,389.415-176.552,428.883-285.747
		C1983.736,1250.921,1724.038,1046.741,1657.469,1014.904L1657.469,1014.904z"/>
	<path style="fill-rule:evenodd;clip-rule:evenodd;fill:#654337;" d="M1959.266,1499.042c-19.734,2.894-51.308-2.894-72.094-6.578
		c-3.684-19.471,4.21-57.886,11.84-52.887C1919.798,1453.786,2008.206,1492.464,1959.266,1499.042L1959.266,1499.042z"/>
	<path style="fill-rule:evenodd;clip-rule:evenodd;fill:#F7A37F;" d="M1325.414,1369.587c45.256,6.841,42.362,46.835,6.315,57.886
		c-10.525,3.157-18.945,2.631-27.891-1.316c-8.683-3.684-17.629-10.525-18.418-21.576
		C1284.104,1384.059,1303.838,1366.167,1325.414,1369.587L1325.414,1369.587z"/>
	<path style="fill-rule:evenodd;clip-rule:evenodd;fill:#F7A37F;" d="M784.179,1284.6c45.256,6.841,42.362,46.835,6.315,57.886
		c-10.525,3.157-18.945,2.631-27.891-1.316c-8.946-3.684-17.629-10.262-18.418-21.576
		C742.869,1299.072,762.603,1281.18,784.179,1284.6L784.179,1284.6z"/>
	<path style="fill-rule:evenodd;clip-rule:evenodd;fill:#949553;" d="M952.048,1623.76c-69.463-6.578-76.568,22.628-77.357,49.993
		c-0.526,17.892-2.631,37.626-1.579,37.363c6.578-2.368,35.784-7.367,50.782-13.682
		C966.52,1679.541,961.521,1624.813,952.048,1623.76L952.048,1623.76z"/>
	<path style="fill-rule:evenodd;clip-rule:evenodd;fill:#ABAC60;" d="M1085.449,1570.873
		c-79.988,0.263-179.447,81.303-185.235,109.194c12.367-10.262,45.519-46.572,92.091-71.042
		c48.677-25.259,99.985-26.575,101.038-32.627C1095.448,1563.243,1095.974,1577.977,1085.449,1570.873L1085.449,1570.873z"/>
	<path style="fill-rule:evenodd;clip-rule:evenodd;fill:#FBBD6A;" d="M475.278,1532.984c-31.837-9.998-78.936-1.052-106.826,21.05
		c-0.526-10.261-38.415-26.838-45.256,10.262c-1.316,7.894-0.526,21.313,9.209,26.575c14.208,7.63,38.942,2.105,36.837-28.943
		c-0.263-3.684,52.361-31.311,86.829-21.576C492.906,1550.613,467.91,1542.719,475.278,1532.984L475.278,1532.984z"/>
	<path style="fill-rule:evenodd;clip-rule:evenodd;fill:#FBBD6A;" d="M460.017,1593.238c-33.416-0.789-76.831,20.786-98.669,49.993
		c-2.894-9.735-43.151-15.524-41.31,22.102c0.526,8.156,4.473,21.049,15.261,23.417c15.261,3.421,38.152-8.683,28.68-38.152
		c-1.052-3.684,43.415-44.73,79.199-44.993C481.066,1605.342,455.017,1604.552,460.017,1593.238L460.017,1593.238z"/>
	<path style="fill-rule:evenodd;clip-rule:evenodd;fill:#FBBD6A;" d="M527.375,1629.022c-33.416-0.79-76.831,20.786-98.669,49.993
		c-2.894-9.735-43.151-15.524-41.31,22.102c0.526,8.156,4.473,21.049,15.261,23.417c15.261,3.421,38.152-8.683,28.68-38.152
		c-1.052-3.684,43.415-44.73,79.199-44.993C548.424,1641.126,522.376,1640.599,527.375,1629.022L527.375,1629.022z"/>
	<path style="fill-rule:evenodd;clip-rule:evenodd;fill:#F8BBA6;" d="M583.946,1520.88
		C570,1456.68,436.073,1408.003,386.87,1444.576c-35.258,26.312,6.578,129.454,101.827,92.354
		C525.27,1522.722,567.369,1527.458,583.946,1520.88L583.946,1520.88z"/>
	<path style="fill-rule:evenodd;clip-rule:evenodd;fill:#F7A37F;" d="M592.102,1570.61c-34.732-53.939-175.763-45.783-208.916,7.894
		c-23.944,38.415,49.729,117.614,125.771,44.993C538.163,1595.869,578.946,1583.24,592.102,1570.61L592.102,1570.61z"/>
	<path style="fill-rule:evenodd;clip-rule:evenodd;fill:#F8BBA6;" d="M602.89,1602.711
		c-57.097-21.839-167.343,73.936-165.765,138.663c1.316,46.572,103.669,64.201,126.56-42.888
		C572.631,1657.439,598.943,1621.392,602.89,1602.711L602.89,1602.711z"/>
	<path style="fill-rule:evenodd;clip-rule:evenodd;fill:#ABAC60;" d="M686.035,1531.932c-33.942-29.469-74.726-34.205-114.72-44.73
		c-32.627-8.683,10.788,155.766,21.839,152.346c39.205-11.051,58.939-15.261,98.933-86.566
		c81.041-45.783,214.442-30.259,403.624,39.468c77.62,28.68,148.136,71.568,208.127,118.403l14.998-30.259
		c-26.049-18.682-54.729-37.626-87.355-57.36C998.883,1483.255,765.497,1482.992,686.035,1531.932L686.035,1531.932z"/>
	<path style="fill-rule:evenodd;clip-rule:evenodd;fill:#654337;" d="M776.811,1414.581
		c-57.886,33.416-121.561,82.619-113.93,114.457c13.156,57.097,1.316-34.206,31.048-28.68c0,145.241,16.576,5.263,18.681,2.105
		c2.631-4.736,19.208,1.052,42.099,39.994c3.947,6.841,9.472-12.893-26.838-49.203c-9.735-9.735,17.629-25.786,59.202-41.836
		C783.389,1426.947,785.231,1441.682,776.811,1414.581L776.811,1414.581z"/>
	<path style="fill-rule:evenodd;clip-rule:evenodd;fill:#654337;" d="M1267.264,1525.09
		c-27.364-14.998-231.281-2.368-242.595,49.993c-12.63,57.36,16.05-30.259,40.52-12.63c-62.359,131.033,12.63,12.104,15.787,9.999
		c4.473-2.894,16.84,9.209,20.786,54.203c0.789,7.893,14.208-7.367-2.894-55.781c-7.63-21.576,83.672-14.998,169.185,1.052
		C1268.843,1566.926,1271.737,1527.458,1267.264,1525.09L1267.264,1525.09z"/>
	<path style="fill-rule:evenodd;clip-rule:evenodd;fill:#654337;" d="M869.692,949.387c45.256,6.841,42.099,46.835,6.052,57.886
		c-10.262,3.157-18.681,2.631-27.628-1.316c-8.946-3.684-17.629-10.262-18.418-21.576
		C828.383,963.859,848.116,945.967,869.692,949.387L869.692,949.387z"/>
	<path style="fill-rule:evenodd;clip-rule:evenodd;fill:#654337;" d="M1291.998,1001.748c45.256,7.104,42.362,46.835,6.315,57.886
		c-10.525,3.158-18.944,2.631-27.891-1.052c-8.683-3.947-17.629-10.525-18.418-21.576
		C1250.688,1016.482,1270.422,998.59,1291.998,1001.748L1291.998,1001.748z"/>
	<path style="fill-rule:evenodd;clip-rule:evenodd;fill:#654337;" d="M1093.869,796.252c6.315-64.464-64.464-27.101-51.571,2.631
		c-76.831,44.73-111.036,200.233-88.408,218.651c2.631,1.842,5.525,2.368,9.472,0.789c-3.947-20.26-7.893-116.298,66.569-192.866
		c6.315-6.578,13.945-10.261,22.365-15.524C1065.979,818.881,1091.764,819.933,1093.869,796.252L1093.869,796.252z"/>
	<path style="fill-rule:evenodd;clip-rule:evenodd;fill:#654337;" d="M1319.625,799.673c6.315-64.464-64.464-27.101-51.571,2.631
		c-76.831,44.73-111.036,200.233-88.408,218.651c2.631,1.842,5.526,2.368,9.472,0.789c-3.947-20.26-7.894-116.299,66.569-192.866
		c6.315-6.578,13.945-10.262,22.365-15.524C1291.734,822.301,1317.52,823.353,1319.625,799.673L1319.625,799.673z"/>
	<path style="fill-rule:evenodd;clip-rule:evenodd;fill:#654337;" d="M1520.647,1654.018c22.365,12.893,70.779,61.57,125.508,84.724
		c47.888,20.26,101.301,17.366,132.085,5.789c45.256-17.629,67.095,9.472,66.569,16.05c-0.263,4.736-23.681-2.894-39.468-1.842
		c-0.526,0,66.306,71.042-21.049,18.944c13.156,28.154,29.469,79.725-21.313,8.157c-167.08,15.524-226.808-77.62-265.487-112.878
		C1492.494,1668.227,1518.279,1652.703,1520.647,1654.018L1520.647,1654.018z"/>
	<path style="fill-rule:evenodd;clip-rule:evenodd;fill:#654337;" d="M1816.919,1535.352c16.576,14.471,17.366,23.944,37.363,33.943
		c40.783,20.26,86.566,17.366,112.878,5.525c38.678-17.366,57.36,9.735,57.097,16.05c-0.263,4.999-20.523-2.631-33.942-1.579
		c-0.526,0,56.571,70.779-17.892,18.682c11.051,28.153,25.259,79.725-18.418,8.156c-71.831,7.894-120.508-11.84-155.24-37.889
		L1816.919,1535.352z"/>
</g>
<g>
	<path style="fill-rule:evenodd;clip-rule:evenodd;fill:#BFDDE0;" d="M2715.503,1053.372
		c-87.618-52.624-177.868-203.917-190.761-311.795c-9.999-82.093,33.679-156.556,99.459-126.56
		c109.984,50.256,148.399,319.163,138.4,423.621C2752.339,1048.635,2737.079,1054.161,2715.503,1053.372L2715.503,1053.372z"/>
	<path style="fill-rule:evenodd;clip-rule:evenodd;fill:#BFDDE0;" d="M2639.725,1170.459
		c-101.827,5.789-261.803-68.411-333.371-149.977c-54.466-62.359-60.254-148.662,11.051-160.766
		c119.193-20.26,302.323,180.236,353.105,272.065C2667.615,1145.989,2658.143,1159.145,2639.725,1170.459L2639.725,1170.459z"/>
	<path style="fill-rule:evenodd;clip-rule:evenodd;fill:#F7CA4F;" d="M2661.827,1051.267
		c-142.347,209.705-209.179,516.239,38.415,708.052c409.939,317.847,1205.083-422.305,702-841.979
		C3123.073,684.479,2827.591,807.356,2661.827,1051.267L2661.827,1051.267z"/>
	<path style="fill-rule:evenodd;clip-rule:evenodd;fill:#FCF0E0;" d="M2997.04,1048.372
		c-77.357,84.198,9.472,184.183,98.406,162.081c61.57-14.998,103.406-78.672,63.412-139.979
		C3117.285,1007.326,3053.084,987.066,2997.04,1048.372L2997.04,1048.372z"/>
	<path style="fill-rule:evenodd;clip-rule:evenodd;fill:#654337;" d="M3023.878,1028.112
		c-50.782,65.78,31.048,164.712,100.511,156.556c23.944-2.631,36.573-16.576,43.941-37.363c7.367-20.786,9.472-48.94-10.788-78.409
		C3120.442,1014.43,3051.768,991.802,3023.878,1028.112L3023.878,1028.112z"/>
	<path style="fill-rule:evenodd;clip-rule:evenodd;fill:#FEFEFE;" d="M3068.082,1031.533c-15.787,12.103,8.683,41.046,25.786,39.468
		c5.789-0.526,8.683-3.947,10.525-8.946c1.579-5.262,1.053-11.577-3.42-19.734
		C3093.341,1028.112,3075.449,1025.744,3068.082,1031.533L3068.082,1031.533z"/>
	<path style="fill-rule:evenodd;clip-rule:evenodd;fill:#FCF0E0;" d="M3328.832,880.503c-61.57,66.832,7.367,146.557,78.146,128.928
		c48.94-12.104,82.356-62.622,50.519-111.299C3424.344,847.876,3373.299,831.563,3328.832,880.503L3328.832,880.503z"/>
	<path style="fill-rule:evenodd;clip-rule:evenodd;fill:#654337;" d="M3349.881,864.453
		c-40.257,52.36,24.996,131.033,80.251,124.455c18.944-2.105,29.206-13.156,34.995-29.732c5.789-16.576,7.367-38.942-8.683-62.359
		C3426.975,853.402,3372.247,835.509,3349.881,864.453L3349.881,864.453z"/>
	<path style="fill-rule:evenodd;clip-rule:evenodd;fill:#FEFEFE;" d="M3385.139,867.084c-12.367,9.472,7.104,32.627,20.523,31.311
		c4.736-0.263,7.104-2.894,8.42-7.104c1.316-4.21,0.789-9.209-2.631-15.524C3405.399,864.189,3390.928,862.348,3385.139,867.084
		L3385.139,867.084z"/>
	<path style="fill-rule:evenodd;clip-rule:evenodd;fill:#654337;" d="M3225.163,1018.903c0.263-17.892,31.048,0.526,46.046-9.998
		c16.576-11.841,10.262-46.046,22.365-41.836c13.156,4.473,11.84,36.047-9.209,54.465
		C3259.895,1042.584,3224.9,1031.533,3225.163,1018.903L3225.163,1018.903z"/>
	<path style="fill-rule:evenodd;clip-rule:evenodd;fill:#F7A37F;" d="M3076.501,1297.546c31.048,27.627,83.409-9.736,81.83-44.467
		c-0.526-12.103-7.104-18.945-17.103-23.417c-10.261-4.473-23.944-6.315-39.468,2.631
		C3073.081,1248.869,3059.399,1282.285,3076.501,1297.546L3076.501,1297.546z"/>
	<path style="fill-rule:evenodd;clip-rule:evenodd;fill:#F7A37F;" d="M3475.915,1027.06c24.996,22.365,67.095-7.894,65.78-36.047
		c-0.263-9.735-5.525-15.261-13.682-18.945c-8.156-3.421-19.471-5.262-31.837,2.105
		C3473.021,987.592,3461.97,1014.693,3475.915,1027.06L3475.915,1027.06z"/>
	<path style="fill-rule:evenodd;clip-rule:evenodd;fill:#654337;" d="M3559.85,1181.51c10.788,49.729-1.052,38.942-51.834,38.678
		c-48.15-0.526-71.568,8.946-68.148,21.313c2.631,10.262-0.789-14.472,36.311-2.631c1.052-1.316-31.837,11.577-32.364,21.839
		c-1.052,15.787,15.261-2.895,38.415-6.315c-11.84,12.63-12.63,36.573-6.052,36.573c3.947,0.263,2.894-12.367,15.524-31.048
		c11.84-17.892,39.468-6.578,63.938-5.526C3659.046,1258.604,3553.798,1153.356,3559.85,1181.51L3559.85,1181.51z"/>
	<path style="fill-rule:evenodd;clip-rule:evenodd;fill:#654337;" d="M2632.62,1760.634c12.366-13.156,16.05-21.839,24.207-39.205
		c-12.63-12.63-37.1-44.204-37.1-36.047C2619.465,1708.274,2602.625,1793.524,2632.62,1760.634L2632.62,1760.634z"/>
	<path style="fill-rule:evenodd;clip-rule:evenodd;fill:#654337;" d="M3025.719,1624.865c-2.105,19.997,6.315,72.621-4.21,117.614
		c-8.946,39.468-35.258,71.831-56.57,85.777c-31.574,20.523-24.733,46.572-20.26,49.203c3.157,2.105,8.946-16.05,16.84-25.522
		c0.263-0.526,14.471,73.936,21.576-4.736c11.577,21.049,36.573,54.991,14.735-9.735c86.303-97.88,54.729-177.868,50.256-218.651
		C3047.558,1613.551,3025.719,1622.76,3025.719,1624.865L3025.719,1624.865z"/>
	<path style="fill-rule:evenodd;clip-rule:evenodd;fill:#654337;" d="M2784.966,1664.333c-2.105,16.05,6.315,58.676-4.21,95.249
		c-8.946,31.837-35.258,57.886-56.571,69.2c-31.574,16.576-24.733,37.889-20.26,39.994c3.157,1.579,8.946-13.156,16.84-20.786
		c0.263-0.263,14.471,59.991,21.576-3.684c11.577,16.84,36.573,44.467,14.735-7.894c86.303-79.462,54.729-144.189,50.256-177.079
		C2806.805,1655.124,2784.966,1662.491,2784.966,1664.333L2784.966,1664.333z"/>
	<path style="fill-rule:evenodd;clip-rule:evenodd;fill:#654337;" d="M3335.673,556.867c8.157-84.198-84.461-35.521-67.358,3.157
		c-100.511,58.412-145.241,261.803-115.509,285.484c3.157,2.631,7.104,3.157,12.103,1.052
		c-4.999-26.312-10.261-151.819,87.092-251.804c8.156-8.42,18.155-13.419,29.206-19.997
		C3299.1,586.336,3332.516,587.915,3335.673,556.867L3335.673,556.867z"/>
	<path style="fill-rule:evenodd;clip-rule:evenodd;fill:#654337;" d="M2951.52,624.752c-23.681-81.304-91.565-1.579-61.307,28.153
		c-71.305,91.565-37.1,297.061-0.526,307.849c3.684,1.316,7.894,0.263,11.577-3.684c-14.471-22.365-66.043-136.821-13.156-266.012
		c4.21-10.788,11.577-19.208,19.471-29.469C2928.629,665.535,2960.203,654.484,2951.52,624.752L2951.52,624.752z"/>
	<path style="fill-rule:evenodd;clip-rule:evenodd;fill:#7D5749;" d="M3555.64,1319.648
		c-117.614,95.775-299.955,193.655-491.242,89.46c-76.304-41.573-179.973-128.665-229.966-227.598
		c-61.833-122.876-45.256-241.543-46.835-270.223c-36.837,33.153-65.517,63.149-104.458,110.51
		c4.736,200.233,194.971,428.094,357.841,498.083c165.501,70.779,366.787,31.048,476.771-85.514
		C3523.277,1428.578,3561.955,1314.385,3555.64,1319.648L3555.64,1319.648z"/>
	<path style="fill-rule:evenodd;clip-rule:evenodd;fill:#654337;" d="M3162.804,1488.307c50.519,0,88.145-55.781,112.878-100.248
		c23.417-41.836,43.415-57.623,52.36-48.677c7.631,7.63-12.103-7.894-20.26,30.259c-1.579,0.263,25.786-21.839,34.995-17.366
		c14.209,7.104-10.525,6.578-24.996,24.996c26.838-6.315,62.622,11.577,0.526,16.313c-53.939,4.21-24.996,111.825-127.349,131.823
		C3174.645,1528.564,3157.805,1488.307,3162.804,1488.307L3162.804,1488.307z"/>
	<path style="fill-rule:evenodd;clip-rule:evenodd;fill:#7D5749;" d="M3400.663,1607.499
		c-117.614,95.775-307.849,92.355-503.346-3.42c-208.39-102.353-282.063-288.378-293.377-453.09
		c-37.1,74.989-54.992,153.398-61.307,184.973c7.894,335.213,296.009,485.717,639.115,436.777
		C3246.476,1763.528,3406.978,1602.237,3400.663,1607.499L3400.663,1607.499z"/>
	<path style="fill-rule:evenodd;clip-rule:evenodd;fill:#CAEAED;" d="M2661.563,1158.882
		c-95.512,36.047-270.223,13.419-363.104-43.151c-70.516-43.152-101.827-123.666-37.626-156.556
		c107.615-55.255,342.58,81.304,418.358,153.661C2680.771,1127.045,2675.509,1142.569,2661.563,1158.882L2661.563,1158.882z"/>
	<path style="fill-rule:evenodd;clip-rule:evenodd;fill:#CAEAED;" d="M2699.189,1082.578
		c-100.248-18.682-237.596-129.191-287.325-225.756c-37.889-73.41-22.628-158.397,49.203-153.135
		c120.772,8.946,250.226,247.594,277.327,348.895C2732.342,1065.738,2719.713,1076,2699.189,1082.578L2699.189,1082.578z"/>
</g>
<g>
	<path style="fill-rule:evenodd;clip-rule:evenodd;fill:#654337;" d="M787.657,3119.571c-16.807,11.485-53.784,54.905-95.243,75.074
		c-36.136,17.928-76.755,14.847-99.725,3.922c-59.667-28.013-66.95-15.407-20.729,12.886c0.28,0.28-50.703,63.309,15.687,17.087
		c-10.085,25.212-22.971,71.713,15.967,7.564c126.337,15.407,171.998-67.791,201.691-99.445
		C809.227,3132.737,789.618,3118.451,787.657,3119.571L787.657,3119.571z"/>
	<path style="fill-rule:evenodd;clip-rule:evenodd;fill:#BFDDE0;" d="M1263.592,2649.519c57.986-67.511,90.761-217.378,71.712-310.1
		c-14.286-70.592-71.152-120.175-117.093-77.035c-77.035,71.992-34.455,304.778,2.521,388.255
		C1231.938,2655.961,1246.224,2656.522,1263.592,2649.519L1263.592,2649.519z"/>
	<path style="fill-rule:evenodd;clip-rule:evenodd;fill:#BFDDE0;" d="M1358.555,2725.433
		c85.999-23.25,197.489-128.578,234.186-215.978c27.733-66.39,8.684-139.223-53.504-129.699
		c-104.207,16.247-200.01,232.505-216.538,322.426C1328.862,2712.827,1340.347,2721.231,1358.555,2725.433L1358.555,2725.433z"/>
	<path style="fill-rule:evenodd;clip-rule:evenodd;fill:#654337;" d="M1759.136,3136.379c-17.928,2.521-46.221-2.521-64.989-5.883
		c-3.361-17.648,3.922-52.384,10.645-47.622C1723.56,3095.76,1803.116,3130.216,1759.136,3136.379L1759.136,3136.379z"/>
	<path style="fill-rule:evenodd;clip-rule:evenodd;fill:#F7C94F;" d="M1170.59,2572.484
		c-252.394-18.208-502.267,99.165-543.166,408.985c-27.452,208.974,126.337,403.662,313.742,480.417
		c156.591,64.149,332.23,35.576,485.46-34.175c118.494-53.784,277.886-251.834,278.726-335.312
		C1708.434,2812.272,1464.163,2593.493,1170.59,2572.484L1170.59,2572.484z"/>
	<path style="fill-rule:evenodd;clip-rule:evenodd;fill:#654337;" d="M955.733,2979.508c13.166-17.088,9.524,24.091,21.57,39.498
		c14.286,18.769,33.335,20.169,47.061,12.045c15.407-9.524,25.212-30.253,31.654-33.055c20.449-9.804-11.205,80.116-71.993,52.944
		C952.091,3036.654,944.808,2994.074,955.733,2979.508L955.733,2979.508z"/>
	<path style="fill-rule:evenodd;clip-rule:evenodd;fill:#654337;" d="M717.065,2858.773c-1.401-1.961-17.928-31.935-29.974-33.055
		c-19.889-2.241-0.28,34.175,18.208,39.498C710.062,2866.617,713.423,2866.897,717.065,2858.773L717.065,2858.773z"/>
	<path style="fill-rule:evenodd;clip-rule:evenodd;fill:#654337;" d="M753.201,2834.683c-0.28-2.521-2.801-36.417-13.166-43.98
		c-17.368-12.045-14.847,29.134-0.28,43.42C743.677,2837.764,746.758,2839.725,753.201,2834.683L753.201,2834.683z"/>
	<path style="fill-rule:evenodd;clip-rule:evenodd;fill:#654337;" d="M806.986,2821.236c0.28-2.521,7.283-36.417-1.121-43.98
		c-13.726-12.045-22.97,29.133-12.045,43.42C796.341,2824.318,798.862,2826.279,806.986,2821.236L806.986,2821.236z"/>
	<path style="fill-rule:evenodd;clip-rule:evenodd;fill:#654337;" d="M1213.73,2955.137c-1.401-1.961-17.928-31.934-29.974-33.055
		c-19.889-2.241-0.56,34.176,18.208,39.498C1206.726,2962.98,1210.088,2963.26,1213.73,2955.137L1213.73,2955.137z"/>
	<path style="fill-rule:evenodd;clip-rule:evenodd;fill:#654337;" d="M1249.866,2931.046c-0.28-2.521-2.801-36.417-13.166-43.98
		c-17.368-12.046-14.847,29.133-0.28,43.42C1240.342,2934.127,1243.423,2936.088,1249.866,2931.046L1249.866,2931.046z"/>
	<path style="fill-rule:evenodd;clip-rule:evenodd;fill:#654337;" d="M1303.651,2917.6c0.28-2.521,7.283-36.417-1.121-43.98
		c-13.726-12.045-22.97,29.133-12.045,43.42C1293.006,2920.681,1295.527,2922.642,1303.651,2917.6L1303.651,2917.6z"/>
	<path style="fill-rule:evenodd;clip-rule:evenodd;fill:#FCF0E0;" d="M766.367,2818.155
		c-112.331,21.29-102.526,153.229-18.208,188.806c58.546,24.371,129.979-1.401,134.18-74.234
		C886.822,2857.373,847.604,2802.748,766.367,2818.155L766.367,2818.155z"/>
	<path style="fill-rule:evenodd;clip-rule:evenodd;fill:#654337;" d="M799.702,2818.155
		c-79.836,22.41-73.113,150.148-12.886,185.164c20.729,12.045,39.218,8.684,57.426-3.642c18.488-12.326,36.696-33.615,38.097-69.191
		C885.421,2864.656,843.682,2805.83,799.702,2818.155L799.702,2818.155z"/>
	<path style="fill-rule:evenodd;clip-rule:evenodd;fill:#FEFEFE;" d="M833.318,2847.008c-20.169,0.56-17.648,38.097-3.361,47.061
		c5.322,3.081,9.524,2.241,14.006-0.84c4.482-3.081,7.844-8.684,8.964-17.648C855.448,2859.614,842.282,2847.008,833.318,2847.008
		L833.318,2847.008z"/>
	<path style="fill-rule:evenodd;clip-rule:evenodd;fill:#FCF0E0;" d="M1256.869,2920.681
		c-112.331,21.29-102.526,152.949-18.208,188.525c58.266,24.651,129.979-1.401,134.18-74.234
		C1377.324,2959.899,1338.106,2904.994,1256.869,2920.681L1256.869,2920.681z"/>
	<path style="fill-rule:evenodd;clip-rule:evenodd;fill:#654337;" d="M1289.924,2920.401
		c-79.556,22.69-72.833,150.428-12.606,185.444c20.729,11.765,39.218,8.404,57.426-3.642c18.488-12.326,36.696-33.615,38.097-69.191
		C1375.923,2967.182,1334.184,2908.075,1289.924,2920.401L1289.924,2920.401z"/>
	<path style="fill-rule:evenodd;clip-rule:evenodd;fill:#FEFEFE;" d="M1323.539,2949.534c-19.889,0.28-17.368,38.097-3.081,47.062
		c5.042,2.801,9.524,1.961,14.006-0.84c4.482-3.362,7.844-8.684,8.964-17.648C1345.949,2961.86,1332.784,2949.534,1323.539,2949.534
		L1323.539,2949.534z"/>
	<path style="fill-rule:evenodd;clip-rule:evenodd;fill:#F7A37F;" d="M791.019,3087.917c-6.163-50.423-75.074-54.625-98.324-19.609
		c-7.844,11.765-7.563,23.531-2.241,35.576c5.322,12.046,15.127,24.651,34.176,27.733
		C764.126,3138.62,793.539,3108.646,791.019,3087.917L791.019,3087.917z"/>
	<path style="fill-rule:evenodd;clip-rule:evenodd;fill:#F7A37F;" d="M1358.275,3213.974c-6.163-50.423-75.074-54.625-98.324-19.609
		c-7.844,11.766-7.563,23.531-2.241,35.576c5.322,12.045,15.127,24.651,34.176,27.732
		C1331.383,3264.677,1360.796,3234.703,1358.275,3213.974L1358.275,3213.974z"/>
	<path style="fill-rule:evenodd;clip-rule:evenodd;fill:#F5B25A;" d="M1321.859,2766.052c4.482-34.175-51.823-74.794-80.957-59.387
		c-10.085,5.323-20.729,30.254-18.208,39.778c2.521,9.244,9.524,20.449,27.172,28.013
		C1286.002,2790.702,1320.178,2780.338,1321.859,2766.052L1321.859,2766.052z"/>
	<path style="fill-rule:evenodd;clip-rule:evenodd;fill:#F5B25A;" d="M810.908,2717.59c4.202-34.456-51.824-75.074-80.957-59.387
		c-10.085,5.322-20.729,30.254-18.208,39.498c2.521,9.524,9.524,20.449,27.172,28.293
		C775.051,2741.96,809.227,2731.596,810.908,2717.59L810.908,2717.59z"/>
	<path style="fill-rule:evenodd;clip-rule:evenodd;fill:#AC87C4;" d="M837.8,2639.154c-0.28-0.28,26.051,1.961,44.82,15.967
		c23.811,17.928,38.938,48.742,7.283,49.582c-24.371,0.56-39.778-40.618-48.742-57.706
		C840.321,2645.597,837.8,2639.154,837.8,2639.154L837.8,2639.154z"/>
	<path style="fill-rule:evenodd;clip-rule:evenodd;fill:#AC87C4;" d="M823.513,2647.558c0-0.28,14.847,21.57,15.687,44.82
		c1.401,29.973-13.166,61.067-33.895,36.977c-15.687-18.489,6.723-56.586,14.286-73.953
		C820.152,2653.72,823.513,2647.838,823.513,2647.558L823.513,2647.558z"/>
	<path style="fill-rule:evenodd;clip-rule:evenodd;fill:#AC87C4;" d="M808.947,2630.19c0-0.28-4.202,26.052-19.329,43.419
		c-19.889,22.69-51.823,35.296-50.143,3.642c1.121-24.371,43.7-36.697,61.068-44.26
		C802.224,2632.431,808.667,2630.47,808.947,2630.19L808.947,2630.19z"/>
	<path style="fill-rule:evenodd;clip-rule:evenodd;fill:#AC87C4;" d="M816.79,2616.744c0.28,0.28-26.332,0.56-46.221-11.485
		c-25.491-15.687-43.42-45.1-12.045-48.742C789.058,2552.875,809.507,2612.542,816.79,2616.744L816.79,2616.744z"/>
	<path style="fill-rule:evenodd;clip-rule:evenodd;fill:#AC87C4;" d="M826.034,2617.865c0,0.28-9.804-24.371-5.602-47.062
		c5.322-29.693,26.332-56.865,41.179-28.853C875.897,2569.403,827.435,2609.741,826.034,2617.865L826.034,2617.865z"/>
	<path style="fill-rule:evenodd;clip-rule:evenodd;fill:#AC87C4;" d="M836.119,2629.91c-0.28,0,13.446-22.69,33.895-33.335
		c26.612-13.726,61.068-13.726,47.902,15.127C905.03,2639.714,843.682,2625.988,836.119,2629.91L836.119,2629.91z"/>
	<path style="fill-rule:evenodd;clip-rule:evenodd;fill:#FFE469;" d="M792.979,2637.473c3.922,13.446,21.85,23.25,29.413,22.69
		c13.166-0.84,28.013-13.726,29.133-26.612C855.168,2593.773,779.534,2593.213,792.979,2637.473L792.979,2637.473z"/>
	<path style="fill-rule:evenodd;clip-rule:evenodd;fill:#654337;" d="M1299.168,2495.729c5.602-57.426-58.266-24.091-46.501,2.241
		c-69.191,39.778-100.285,178.441-79.836,194.688c2.241,1.681,5.042,1.961,8.404,0.56c-3.361-17.928-7.003-103.367,60.227-171.438
		c5.603-5.883,12.326-9.244,19.889-13.726C1273.677,2515.898,1296.927,2517.019,1299.168,2495.729L1299.168,2495.729z"/>
	<path style="fill-rule:evenodd;clip-rule:evenodd;fill:#654337;" d="M968.059,2454.27c-22.13-53.224-62.749,5.603-39.778,23.531
		c-42.299,67.231-3.922,203.932,21.85,208.695c2.801,0.56,5.603-0.28,7.844-3.362c-11.485-14.006-55.185-87.96-28.573-179.281
		c2.241-7.563,6.723-13.726,11.205-21.29C955.453,2483.684,976.462,2473.879,968.059,2454.27L968.059,2454.27z"/>
	<path style="fill-rule:evenodd;clip-rule:evenodd;fill:#7D5749;" d="M1454.359,2662.685
		c234.186,244.27,120.174,646.252-149.307,809.846c292.452-95.803,356.601-243.43,392.177-341.475
		C1791.631,2869.418,1514.306,2691.258,1454.359,2662.685L1454.359,2662.685z"/>
	<path style="fill-rule:evenodd;clip-rule:evenodd;fill:#7D5749;" d="M1267.794,2587.051
		c103.927,77.875,226.062,218.499,277.606,340.074c-4.762-114.012-75.914-254.075-136.982-289.931
		C1402.815,2633.832,1355.194,2613.663,1267.794,2587.051L1267.794,2587.051z"/>
	<path style="fill-rule:evenodd;clip-rule:evenodd;fill:#CAEAED;" d="M1388.809,2675.01c76.474-1.681,191.326-66.39,239.788-131.66
		c36.977-49.582,36.136-114.292-17.648-119.334c-90.201-8.124-214.857,152.669-247.352,224.101
		C1366.679,2658.483,1374.522,2667.727,1388.809,2675.01L1388.809,2675.01z"/>
	<path style="fill-rule:evenodd;clip-rule:evenodd;fill:#CAEAED;" d="M1341.187,2632.991
		c64.429-41.179,128.858-156.591,136.142-237.548c5.603-61.628-28.573-116.252-77.035-92.442
		c-81.237,40.058-104.207,242.03-94.403,319.905C1313.735,2630.19,1325.22,2634.112,1341.187,2632.991L1341.187,2632.991z"/>
	<path style="fill-rule:evenodd;clip-rule:evenodd;fill:#654337;" d="M1503.941,3297.452c19.609,3.642,70.032,28.853,115.132,31.655
		c39.498,2.241,74.234-16.248,90.481-35.296c23.811-28.013,48.742-12.326,50.703-6.723c1.681,3.922-16.808,4.762-27.172,10.365
		c-0.28,0.28,70.592,38.377-7.003,21.85c19.049,19.049,49.302,56.586-11.485,12.886c-105.888,63.309-180.401,5.042-219.339-12.325
		C1490.215,3317.621,1501.7,3296.891,1503.941,3297.452L1503.941,3297.452z"/>
	<path style="fill-rule:evenodd;clip-rule:evenodd;fill:#654337;" d="M1617.672,3171.955c14.006,2.521,48.182,19.889,80.677,20.169
		c28.012,0.28,54.064-15.127,67.23-30.253c19.049-22.41,35.576-11.205,36.697-7.284c0.84,3.082-12.606,4.482-20.169,9.244
		c-0.28,0,48.182,26.612-6.723,16.808c12.606,14.006,31.654,41.459-8.964,10.365c-80.396,52.384-129.699,10.365-156.311-1.401
		C1606.467,3187.922,1616.272,3171.955,1617.672,3171.955L1617.672,3171.955z"/>
	<path style="fill-rule:evenodd;clip-rule:evenodd;fill:#654337;" d="M1239.501,3257.954
		c-17.088,11.485-54.064,54.625-95.523,75.074c-36.136,17.648-76.475,14.847-99.725,3.922
		c-59.667-28.013-66.95-15.687-20.729,12.606c0.56,0.28-50.423,63.589,15.967,17.368c-10.085,24.931-23.25,71.432,15.967,7.283
		c126.057,15.687,171.998-67.791,201.411-99.165C1260.791,3270.84,1241.182,3256.553,1239.501,3257.954L1239.501,3257.954z"/>
</g>
<g>
	<path style="fill-rule:evenodd;clip-rule:evenodd;fill:#654337;" d="M2485.83,3349.431c17.6-3.791,42.51-18.141,58.757-27.348
		c-2.708-17.6-21.12-47.655-25.994-40.885C2505.325,3299.339,2442.778,3358.908,2485.83,3349.431L2485.83,3349.431z"/>
	<path style="fill-rule:evenodd;clip-rule:evenodd;fill:#BFDDE0;" d="M2831.059,2628.106
		c56.049-65.796,87.187-211.74,68.233-301.635c-14.351-68.504-69.858-116.43-114.264-74.461
		c-74.461,70.4-31.951,296.219,4.332,377.179C2800.462,2634.605,2814.271,2634.605,2831.059,2628.106L2831.059,2628.106z"/>
	<path style="fill-rule:evenodd;clip-rule:evenodd;fill:#BFDDE0;" d="M2703.256,2712.315
		c-9.477-85.833-93.956-208.761-172.208-256.688c-59.84-36.825-132.405-29.243-132.676,31.68
		c0,102.35,193.328,226.903,276.995,256.146C2686.74,2739.121,2696.487,2729.373,2703.256,2712.315L2703.256,2712.315z"/>
	<path style="fill-rule:evenodd;clip-rule:evenodd;fill:#F7A37F;" d="M3504.728,2850.948
		c70.4,259.937-92.873,478.175-328.712,579.442c-301.635,129.698-587.024-4.603-650.925-109.661
		c-95.039-156.504-58.215-542.076,244.774-699.122C3033.322,2485.412,3404.273,2481.621,3504.728,2850.948L3504.728,2850.948z"/>
	<path style="fill-rule:evenodd;clip-rule:evenodd;fill:#654337;" d="M3116.448,2895.625c5.957-16.787,29.243,10.289,46.572,4.874
		c19.225-5.957,24.098-40.344,34.117-32.492c10.831,8.394,0,37.637-25.723,48.467
		C3141.899,2928.929,3112.386,2907.539,3116.448,2895.625L3116.448,2895.625z"/>
	<path style="fill-rule:evenodd;clip-rule:evenodd;fill:#654337;" d="M3190.908,2383.604c9.477-94.768-94.769-40.074-75.815,3.791
		c-112.91,65.526-163.543,294.595-129.968,321.13c3.52,2.979,8.123,3.52,13.809,1.083c-5.686-29.514-11.372-170.584,98.018-283.223
		c8.935-9.747,20.308-15.163,32.763-22.744C3149.752,2416.637,3187.659,2418.533,3190.908,2383.604L3190.908,2383.604z"/>
	<path style="fill-rule:evenodd;clip-rule:evenodd;fill:#654337;" d="M3408.064,2486.495c51.175-55.237-40.615-70.399-49.551-33.846
		c-102.079-12.726-243.149,106.953-235.026,139.716c0.813,3.52,3.52,5.957,8.123,7.04c10.56-21.12,74.461-112.639,196.848-131.052
		c10.289-1.625,20.037,0.271,31.409,1.354C3366.366,2487.578,3389.11,2506.803,3408.064,2486.495L3408.064,2486.495z"/>
	<path style="fill-rule:evenodd;clip-rule:evenodd;fill:#7D5749;" d="M2803.44,2605.362
		c-61.735,145.402-113.993,378.262,12.997,555.885c50.634,70.941,146.485,160.565,242.337,190.62
		c119.408,37.366,238.817-2.166,264.269-7.311c-62.006,48.738-107.224,67.15-157.316,90.165
		c-175.999,40.074-350.102-68.233-441.622-223.925c-93.144-157.857-106.412-402.631-25.181-544.784
		C2702.986,2658.974,2806.96,2597.51,2803.44,2605.362L2803.44,2605.362z"/>
	<path style="fill-rule:evenodd;clip-rule:evenodd;fill:#CAEAED;" d="M2720.585,2738.038
		c-87.458-60.381-171.396-223.654-177.894-336.564c-4.874-85.833,45.489-160.295,111.556-124.824
		c111.285,59.569,133.218,341.438,116.159,449.474C2759.034,2735.872,2742.788,2740.475,2720.585,2738.038L2720.585,2738.038z"/>
	<path style="fill-rule:evenodd;clip-rule:evenodd;fill:#CAEAED;" d="M2652.081,2800.315
		c-85.833-8.936-209.303-92.873-257.771-170.854c-36.824-59.298-29.784-132.135,31.138-132.676
		c102.35-0.541,227.986,191.974,257.5,275.641C2678.887,2783.798,2669.14,2793.545,2652.081,2800.315L2652.081,2800.315z"/>
	<path style="fill-rule:evenodd;clip-rule:evenodd;fill:#654337;" d="M2834.579,2927.846c2.166-5.957,49.28,53.341,105.328,54.153
		c48.468,0.542,82.855-77.981,95.039-73.378c15.163,5.957-25.452,88-94.498,94.227
		C2865.446,3009.889,2832.142,2934.886,2834.579,2927.846L2834.579,2927.846z"/>
	<path style="fill-rule:evenodd;clip-rule:evenodd;fill:#654337;" d="M2999.476,2969.544c1.083,2.437,11.372,36.824,23.828,40.886
		c20.037,6.499,7.852-35.47-10.289-44.947C3008.411,2963.046,3004.891,2961.963,2999.476,2969.544L2999.476,2969.544z"/>
	<path style="fill-rule:evenodd;clip-rule:evenodd;fill:#654337;" d="M2956.695,2986.332c-0.271,2.708-5.145,38.449,4.062,48.468
		c15.163,16.246,21.661-26.806,9.477-44.677C2967.254,2985.249,2964.547,2982.541,2956.695,2986.332L2956.695,2986.332z"/>
	<path style="fill-rule:evenodd;clip-rule:evenodd;fill:#654337;" d="M2898.209,2988.498c-0.813,2.437-15.705,36.012-8.665,45.489
		c11.643,15.705,30.055-24.911,22.203-41.969C2909.581,2987.685,2907.686,2984.978,2898.209,2988.498L2898.209,2988.498z"/>
	<path style="fill-rule:evenodd;clip-rule:evenodd;fill:#654337;" d="M3238.834,2807.354c0.542-6.228,54.966,46.301,104.245,38.99
		c42.51-6.228,54.966-89.083,66.609-86.104c14.621,3.791-2.437,90.978-61.464,106.953
		C3284.323,2884.794,3238.293,2814.665,3238.834,2807.354L3238.834,2807.354z"/>
	<path style="fill-rule:evenodd;clip-rule:evenodd;fill:#654337;" d="M3392.359,2825.767c1.354,2.166,18.412,35.2,30.055,37.366
		c18.954,3.791-1.083-36.283-18.954-43.323C3398.587,2817.914,3395.338,2817.373,3392.359,2825.767L3392.359,2825.767z"/>
	<path style="fill-rule:evenodd;clip-rule:evenodd;fill:#654337;" d="M3358.784,2848.511c0.271,2.708,4.062,38.99,14.621,47.655
		c16.788,14.08,12.726-29.784-1.895-46.031C3367.719,2846.074,3364.741,2843.637,3358.784,2848.511L3358.784,2848.511z"/>
	<path style="fill-rule:evenodd;clip-rule:evenodd;fill:#654337;" d="M3308.151,2858.8c-0.271,2.708-5.686,38.178,2.708,46.572
		c13.809,14.08,20.578-28.972,9.748-44.948C3317.898,2856.363,3315.461,2853.927,3308.151,2858.8L3308.151,2858.8z"/>
	<path style="fill-rule:evenodd;clip-rule:evenodd;fill:#FCDA7C;" d="M2906.332,3147.709c17.058,43.594,88.541,32.763,104.787-2.979
		c5.686-12.455,2.708-22.474-5.415-32.221c-7.852-9.477-20.578-18.683-40.886-17.6
		C2927.722,3097.076,2897.126,3123.611,2906.332,3147.709L2906.332,3147.709z"/>
	<path style="fill-rule:evenodd;clip-rule:evenodd;fill:#FCDA7C;" d="M3422.956,2958.172c12.997,33.034,67.15,24.911,79.335-2.437
		c4.332-9.206,2.166-17.058-3.791-24.098c-5.957-7.311-15.975-14.351-31.138-13.538
		C3439.202,2919.723,3415.916,2939.76,3422.956,2958.172L3422.956,2958.172z"/>
	<path style="fill-rule:evenodd;clip-rule:evenodd;fill:#7D5749;" d="M2856.24,3480.482
		c-326.546-202.534-377.721-497.671-288.909-670.962c-108.307,158.67-100.996,320.859-83.938,404.526
		c8.123,40.073,21.661,77.169,41.698,106.682C2617.423,3455.842,2811.563,3484.814,2856.24,3480.482L2856.24,3480.482z"/>
	<path style="fill-rule:evenodd;clip-rule:evenodd;fill:#F8BBA6;" d="M3269.972,2602.113c2.979,32.763,63.36,24.098,81.501,2.979
		c6.228-7.311,6.228-14.892,2.708-23.015c-3.52-7.852-10.56-16.788-24.369-20.037
		C3313.024,2558.249,3267.806,2578.556,3269.972,2602.113L3269.972,2602.113z"/>
	<path style="fill-rule:evenodd;clip-rule:evenodd;fill:#F8BBA6;" d="M2817.25,2732.352c12.997,30.326,67.963,3.791,78.793-21.932
		c3.791-8.935,1.354-15.975-4.332-22.744c-5.957-6.498-15.163-12.726-29.514-11.643
		C2845.138,2677.386,2808.314,2710.69,2817.25,2732.352L2817.25,2732.352z"/>
	<path style="fill-rule:evenodd;clip-rule:evenodd;fill:#654337;" d="M2855.157,3328.853c-10.831,12.997-29.784,54.424-58.486,81.23
		c-24.911,23.827-58.757,34.117-80.418,33.846c-32.221-0.271-39.532,21.661-37.907,25.452c1.354,2.978,14.08-7.04,24.369-10.019
		c0.271-0.271-24.911,59.298,17.329,6.769c-1.625,20.308,0,56.32,15.163,0c107.224-28.701,122.658-100.184,138.633-131.051
		C2876.006,3331.019,2856.24,3327.499,2855.157,3328.853L2855.157,3328.853z"/>
	<path style="fill-rule:evenodd;clip-rule:evenodd;fill:#654337;" d="M2638.814,3346.182c-11.102,5.957-35.741,28.701-62.818,38.99
		c-23.827,8.935-49.821,6.769-64.713,0.271c-21.661-9.477-33.034,3.52-32.763,6.769c0,2.166,11.643-1.083,19.225-0.271
		c0.271,0-33.846,33.575,10.018,9.748c-7.04,13.539-15.975,38.449,10.289,4.332c81.23,10.831,112.368-33.575,131.864-50.092
		C2652.623,3353.763,2640.167,3345.64,2638.814,3346.182L2638.814,3346.182z"/>
	<path style="fill-rule:evenodd;clip-rule:evenodd;fill:#654337;" d="M3516.371,2981.458c11.914,55.778-1.354,43.865-58.486,43.323
		c-53.883-0.271-80.418,10.56-76.627,24.098c2.979,11.643-1.083-16.246,40.886-2.708c1.083-1.625-36.012,12.997-36.554,24.64
		c-1.083,17.6,17.329-3.52,43.323-7.311c-13.539,14.351-14.351,41.157-6.769,41.427c4.332,0,3.249-14.08,17.329-35.47
		c13.538-19.766,44.406-7.311,72.024-5.957C3627.927,3068.104,3509.602,2949.778,3516.371,2981.458L3516.371,2981.458z"/>
	<path style="fill-rule:evenodd;clip-rule:evenodd;fill:#654337;" d="M2995.685,3223.253c46.031,33.304,117.242,7.582,169.23-16.517
		c49.009-22.745,77.439-23.828,79.876-9.748c1.895,11.914-5.957-15.163-38.449,14.351c-1.625-0.812,37.907-2.978,43.323,7.311
		c8.123,15.705-14.08-1.083-39.261,6.228c28.701,11.914,49.28,51.717-10.289,15.163c-51.987-31.95-96.935,85.292-203.346,35.741
		C2979.981,3267.93,2991.353,3220.004,2995.685,3223.253L2995.685,3223.253z"/>
</g>
</svg>
