<?xml version="1.0" encoding="utf-8"?>
<!-- Generator: Adobe Illustrator 27.5.0, SVG Export Plug-In . SVG Version: 6.00 Build 0)  -->
<svg version="1.1" id="Capa_1" xmlns="http://www.w3.org/2000/svg" xmlns:xlink="http://www.w3.org/1999/xlink" x="0px" y="0px"
	 viewBox="0 0 2122 2122" style="enable-background:new 0 0 2122 2122;" xml:space="preserve">
<g>
	<path style="fill:#F4AFCF;" d="M1861.567,557.374c-65.699-65.699-132.105-105.811-148.323-89.594
		c-12.083,12.083-41.769,100.914-28.965,172.602c-85.901,26.141-208.565,111.964-289.83,173.801
		c-30.554-172.065-58.727-287.217-58.727-287.217c0-43.531-169.613-78.82-378.841-78.82s-378.84,35.288-378.84,78.82h0
		c-18.539,58.86-33.962,125.937-46.819,196.996c-91.298-71.649-289.606-171.106-351.514,250.21
		c-69.627,473.856,153.693,485.903,286.134,407.287l1.206,0.13c1.339,0,2.471-0.509,3.454-1.211
		c-3.635,113.457-3.203,188.469-3.203,188.469v0c0,57.619,224.506,104.328,501.448,104.328s501.448-46.709,501.448-104.328v0
		c0-94.931-5.011-191.973-13.081-286.801c116.26-177.834,265.618-419.865,308.035-550.38
		c73.52,19.619,173.161-13.118,186.011-25.969C1967.378,689.479,1927.265,623.072,1861.567,557.374z M474.589,1277.327
		c-74.192,42.303-201.251,68.144-181.88-269.255c19.088-332.46,145.658-276.413,218.955-214.056c-0.54,2.271-1.08,4.541-1.62,6.811
		c-0.779,3.275,1.028,6.758,4.356,7.671c0.973,0.268,1.977,0.194,2.954-0.027C493.683,967.803,481.177,1138.247,474.589,1277.327z"
		/>
	<path style="fill:#FFF6CA;" d="M1215.813,1107.109c-2.777-65.047-97.429-48.58-165.568-28.147
		c63.916-35.304,145.517-93.011,96.99-137.564c-47.958-44.032-103.243,34.541-136.976,97.17
		c20.232-70.159,37.126-168.664-28.691-165.854c-65.047,2.776-48.58,97.427-28.147,165.567
		c-35.304-63.916-93.011-145.516-137.564-96.989c-44.032,47.959,34.541,103.244,97.171,136.976
		c-70.159-20.232-168.664-37.126-165.854,28.69c2.776,65.048,97.428,48.581,165.567,28.147
		c-63.917,35.304-145.517,93.01-96.99,137.564c47.959,44.032,103.244-34.54,136.976-97.17
		c-20.232,70.16-37.126,168.663,28.69,165.854c65.047-2.776,48.58-97.427,28.147-165.567
		c35.304,63.916,93.011,145.516,137.564,96.99c44.032-47.958-34.541-103.243-97.17-136.976
		C1120.117,1156.031,1218.622,1172.927,1215.813,1107.109z"/>
	<ellipse style="fill:#B6277D;" cx="959.395" cy="548.595" rx="317.408" ry="44.071"/>
	<path style="fill:#B6277D;" d="M212.601,1115.78c2.256-94.058,9.594-189.612,42.745-278.489
		c16.991-45.551,40.846-88.794,72.592-125.751c5.206-6.059-3.578-14.921-8.819-8.82c-59.793,69.608-91.32,158.164-105.764,247.757
		c-7.983,49.514-11.278,99.63-12.804,149.717c-1.33,43.66-1.762,87.518,4.272,130.88c6.445,46.325,21.292,91.273,50.361,128.443
		c4.941,6.317,13.71-2.566,8.82-8.82C212.563,1284.923,210.689,1195.485,212.601,1115.78z"/>
	<path style="fill:#B6277D;" d="M473.283,1375.352c0.854-18.093,1.707-36.187,2.56-54.28c0.159-3.367-2.98-6.236-6.236-6.236
		c-3.51,0-6.077,2.859-6.236,6.236c-0.854,18.093-1.707,36.187-2.56,54.28c-0.139,2.948,2.249,5.513,5.03,6.107
		c0.396,0.085,0.8,0.13,1.206,0.13c1.34,0,2.471-0.508,3.454-1.211C472.095,1379.24,473.184,1377.442,473.283,1375.352z"/>
	<path style="fill:#B6277D;" d="M514.399,808.498c0.974,0.268,1.978,0.194,2.955-0.027c2.2-0.497,4.174-2.05,4.716-4.328
		c3.361-14.132,6.723-28.264,10.084-42.397c0.778-3.274-1.029-6.757-4.355-7.672c-3.167-0.87-6.889,1.066-7.672,4.356
		c-2.821,11.861-5.643,23.723-8.464,35.585c-0.54,2.27-1.08,4.541-1.62,6.811C509.265,804.102,511.071,807.585,514.399,808.498z"/>
	<path style="fill:#B6277D;" d="M1390.26,824.243c20.141,100.681,32.625,202.769,37.379,305.333c0.371,7.992,12.846,8.038,12.473,0
		c-4.804-103.658-17.47-206.896-37.825-308.65C1400.714,813.062,1388.689,816.391,1390.26,824.243z"/>
	<path style="fill:#B6277D;" d="M1746.968,509.246c-3.508-7.218-14.267-0.901-10.769,6.296
		c36.882,75.888,96.66,139.869,169.748,182.002c6.966,4.016,13.255-6.757,6.295-10.769
		C1840.859,645.624,1782.978,583.338,1746.968,509.246z"/>
	<path style="fill:#B6277D;" d="M523.258,1486.37c1.171-24.28,2.462-48.553,3.869-72.821
		c5.606-96.657,13.082-193.207,22.424-289.576c5.287-54.541,11.18-109.022,17.652-163.435c0.945-7.953-11.535-7.886-12.473,0
		c-11.874,99.826-21.772,199.884-29.641,300.105c-3.902,49.699-7.309,99.437-10.22,149.205c-1.467,25.089-2.809,50.186-4.024,75.288
		c-1.085,22.402-4.484,46.701,1.745,68.632c11.623,40.921,56.287,55.224,93.125,64.418c7.788,1.944,11.111-10.081,3.315-12.027
		c-30.996-7.736-71.802-18.688-83.46-52.609C518.353,1532.549,522.211,1508.075,523.258,1486.37z"/>
	<path style="fill:#FFFFFF;" d="M1342.624,828.313c-11.937-64.622-25.255-128.983-39.898-193.046
		c-1.788-7.822-13.817-4.511-12.027,3.316c26.033,113.89,47.832,228.737,65.268,344.256
		c17.352,114.965,30.358,230.584,39.037,346.526c4.906,65.531,8.412,131.164,10.56,196.842c0.261,8.006,12.735,8.042,12.473,0
		c-3.831-117.169-12.031-234.188-24.651-350.74C1380.793,1059.174,1363.87,943.341,1342.624,828.313z"/>
	<path style="fill:#FFFFFF;" d="M1691.391,673.111c-70.507,34.449-136.739,77.329-197.079,127.5
		c-17.355,14.431-34.186,29.481-50.508,45.069c-5.816,5.555,3.012,14.366,8.82,8.819c56.248-53.722,118.805-100.607,186.228-139.404
		c19.249-11.076,38.88-21.466,58.834-31.215C1704.897,680.357,1698.582,669.597,1691.391,673.111z"/>
	<path style="fill:#FFE979;" d="M987.058,1047.906c-30.633,0-61.03,28.109-61.03,58.742c0,30.633,19.051,59.515,49.683,59.515
		c30.634,0,61.248-28.882,61.248-59.515C1036.959,1076.014,1017.691,1047.906,987.058,1047.906z"/>
</g>
</svg>
